<svg xmlns="http://www.w3.org/2000/svg" viewBox="0 0 189 164" width="189" height="164">
	<defs>
		<clipPath clipPathUnits="userSpaceOnUse" id="cp1">
			<path d="M-798 -2071L1122 -2071L1122 3948L-798 3948Z" />
		</clipPath>
	</defs>
	<style>
		tspan { white-space:pre }
		.shp0 { fill: #ffe8f2 } 
		.shp1 { fill: #ffd0c7 } 
		.shp2 { fill: #ffa700 } 
		.shp3 { fill: #cb0476 } 
		.shp4 { fill: #ffb9b7 } 
		.shp5 { fill: #fe0470 } 
		.shp6 { fill: #000000 } 
	</style>
	<g id="CovidZone" clip-path="url(#cp1)">
		<g id="How can contagious it">
			<g id="Detalis">
				<g id="5">
					<g id="Icon">
						<path id="Path 53" class="shp0" d="M91.01 1.94C138.01 16.94 221.01 68.94 176.01 86.94C131.01 104.94 127.01 173.94 91.01 161.94C55.01 149.94 -21.99 110.94 6.01 86.94C34.01 62.94 44.01 -13.06 91.01 1.94Z" />
						<g id="shelves">
							<path id="Rectangle 12" class="shp1" d="M99.85 93.85L123.55 93.85L123.55 117.55L99.85 117.55L99.85 93.85Z" />
							<path id="Rectangle 13" class="shp2" d="M76.15 93.85L99.85 93.85L99.85 117.55L76.15 117.55L76.15 93.85Z" />
							<g id="Group 14">
								<path id="Rectangle 14" class="shp1" d="M52.45 93.85L76.16 93.85L76.16 117.55L52.45 117.55L52.45 93.85Z" />
								<path id="Rectangle 15" class="shp1" d="M52.45 46.16L76.16 46.16L76.16 69.86L52.45 69.86L52.45 46.16Z" />
							</g>
							<path id="Rectangle 16" class="shp1" d="M52.45 70.15L76.16 70.15L76.16 93.85L52.45 93.85L52.45 70.15Z" />
							<path id="Rectangle 17" class="shp1" d="M76.15 70.15L99.85 70.15L99.85 93.85L76.15 93.85L76.15 70.15Z" />
							<path id="Rectangle 18" class="shp3" d="M58.52 84.89L70.08 84.89L70.08 93.85L58.52 93.85L58.52 84.89Z" />
							<path id="Rectangle 19" class="shp4" d="M56.78 77.95L71.81 77.95L71.81 84.89L56.78 84.89L56.78 77.95Z" />
							<path id="Path 109" class="shp5" d="M115.13 82.8C115.54 81.27 115.85 79.47 115.85 77.56C115.84 71.93 113.14 67.36 113.14 67.36C113.14 67.36 110.45 71.93 110.45 77.57C110.45 79.48 110.76 81.27 111.18 82.79L115.13 82.8L115.13 82.8Z" />
							<g id="Group 15">
								<path id="Path 110" class="shp5" d="M114.28 82.8L119.39 82.8C119.73 82.38 120.06 81.95 120.38 81.48C123.25 77.25 123.56 72.45 123.56 72.45C123.56 72.45 118.97 74.88 116.09 79.11" />
								<path id="Path 111" class="shp5" d="M110.23 79.03C107.35 74.8 102.74 72.45 102.74 72.45C102.74 72.45 103.05 77.25 105.92 81.48C106.24 81.95 106.57 82.38 106.91 82.79L112.02 82.79" />
							</g>
							<path id="Path 112" class="shp5" d="M120.05 82.8L106.25 82.8L107.95 93.85L118.35 93.85L120.05 82.8Z" />
							<path id="Path 113" class="shp5" d="M91.05 117.55L88.3 117.55C87.46 117.55 86.78 116.87 86.78 116.03L86.78 101.73C86.78 100.89 87.46 100.21 88.3 100.21L91.05 100.21C91.89 100.21 92.57 100.89 92.57 101.73L92.57 116.03C92.57 116.87 91.89 117.55 91.05 117.55Z" />
							<path id="Path 114" class="shp5" d="M85.26 117.55L82.47 117.55C81.64 117.55 80.96 116.87 80.96 116.03L80.96 106.32C80.96 105.49 81.64 104.81 82.47 104.81L85.26 104.81C86.1 104.81 86.78 105.49 86.78 106.32L86.78 116.03C86.78 116.87 86.1 117.55 85.26 117.55Z" />
							<path id="Path 115" class="shp5" d="M98.33 117.55L94.09 117.55C93.25 117.55 92.57 116.87 92.57 116.03L92.57 101.73C92.57 100.89 93.25 100.21 94.09 100.21L98.33 100.21C99.17 100.21 99.85 100.89 99.85 101.73L99.85 116.03C99.85 116.87 99.17 117.55 98.33 117.55Z" />
							<path id="Path 116" class="shp2" d="M70.58 70.17L70.58 65.39C70.58 63.55 69.91 61.77 68.69 60.4L68.69 60.4C67.47 59.02 66.8 57.24 66.8 55.41L66.8 51.79L61.8 51.79L61.8 55.41C61.8 57.24 61.12 59.02 59.9 60.4L59.9 60.4C58.69 61.77 58.01 63.55 58.01 65.39L58.01 70.17L70.58 70.17L70.58 70.17Z" />
							<path id="Path 117" class="shp3" d="M52.45 108.75L52.45 105.96C52.45 105.13 53.13 104.45 53.97 104.45L63.68 104.45C64.51 104.45 65.19 105.13 65.19 105.96L65.19 108.75C65.19 109.59 64.51 110.27 63.68 110.27L53.97 110.27C53.13 110.27 52.45 109.59 52.45 108.75Z" />
							<path id="Path 118" class="shp5" d="M52.45 116.03L52.45 111.79C52.45 110.95 53.13 110.27 53.97 110.27L68.27 110.27C69.11 110.27 69.79 110.95 69.79 111.79L69.79 116.03C69.79 116.87 69.11 117.55 68.27 117.55L53.97 117.55C53.13 117.55 52.45 116.87 52.45 116.03Z" />
							<path id="Path 119" fill-rule="evenodd" class="shp6" d="M125 93.85L125 117.55C125 118.35 124.35 119 123.55 119L52.45 119C51.65 119 51 118.35 51 117.55L51 46.45C51 45.65 51.65 45 52.45 45L76.15 45C76.95 45 77.59 45.65 77.59 46.45L77.59 68.72L81.59 68.72C82.39 68.72 83.04 69.37 83.04 70.17C83.04 70.96 82.39 71.61 81.59 71.61L77.59 71.61L77.59 92.4L98.41 92.4L98.41 71.61L93.74 71.61C92.94 71.61 92.29 70.96 92.29 70.17C92.29 69.37 92.94 68.72 93.74 68.72L99.85 68.72C100.65 68.72 101.3 69.37 101.3 70.17L101.3 92.4L106.26 92.4L104.82 83.01C104.79 82.83 104.8 82.64 104.84 82.46C104.8 82.41 104.76 82.35 104.72 82.29C101.66 77.79 101.31 72.75 101.3 72.54C101.27 72.02 101.52 71.52 101.95 71.24C102.38 70.95 102.94 70.92 103.4 71.16C103.56 71.24 106.42 72.72 109.12 75.44C109.64 70.51 111.79 66.8 111.9 66.63C112.16 66.19 112.63 65.92 113.14 65.92C113.14 65.92 113.14 65.92 113.14 65.92C113.65 65.92 114.13 66.19 114.39 66.63C114.49 66.8 116.67 70.55 117.19 75.53C119.88 72.78 122.72 71.25 122.88 71.17C123.34 70.92 123.9 70.95 124.34 71.23C124.78 71.51 125.03 72.01 125 72.54C124.98 72.75 124.64 77.79 121.57 82.29C121.54 82.35 121.5 82.41 121.46 82.46C121.5 82.64 121.51 82.83 121.48 83.01L120.04 92.4L123.55 92.4C124.35 92.4 125 93.05 125 93.85ZM117.29 79.92C117.24 80 117.19 80.06 117.13 80.12C117.08 80.53 117.01 80.94 116.93 81.35L118.69 81.35C118.86 81.13 119.03 80.9 119.18 80.67C120.36 78.94 121.07 77.08 121.5 75.56C120.14 76.62 118.53 78.1 117.29 79.92ZM111.9 77.57C111.9 78.79 112.04 80.06 112.31 81.35L113.99 81.35C114.27 80.06 114.4 78.79 114.4 77.56C114.4 74.96 113.77 72.59 113.15 70.87C112.52 72.59 111.89 74.97 111.9 77.57ZM104.78 75.49C105.21 77.02 105.92 78.91 107.12 80.67C107.27 80.9 107.43 81.13 107.61 81.35L109.37 81.35C109.28 80.9 109.21 80.45 109.16 80C109.12 79.95 109.07 79.9 109.03 79.84C107.78 78 106.15 76.53 104.78 75.49ZM109.19 92.4L117.11 92.4L118.37 84.24L107.93 84.24L109.19 92.4ZM94.08 98.76L98.33 98.76C98.36 98.76 98.38 98.77 98.4 98.77L98.4 95.29L77.59 95.29L77.59 116.11L79.52 116.11C79.52 116.08 79.51 116.06 79.51 116.03L79.51 106.32C79.51 104.69 80.84 103.36 82.47 103.36L85.26 103.36C85.29 103.36 85.31 103.37 85.34 103.37L85.34 101.73C85.34 100.09 86.67 98.76 88.3 98.76L91.05 98.76C91.61 98.76 92.12 98.92 92.57 99.19C93.01 98.92 93.53 98.76 94.08 98.76ZM71.24 111.79L71.24 116.03C71.24 116.06 71.23 116.08 71.23 116.11L74.7 116.11L74.7 95.29L53.89 95.29L53.89 103C53.92 103 53.94 103 53.97 103L63.68 103C65.31 103 66.64 104.33 66.64 105.96L66.64 108.75C66.64 108.78 66.63 108.8 66.63 108.82L68.27 108.82C69.91 108.82 71.24 110.15 71.24 111.79ZM53.89 47.89L53.89 68.72L56.57 68.72L56.57 65.39C56.57 63.19 57.37 61.08 58.82 59.44C59.81 58.32 60.35 56.89 60.35 55.41L60.35 51.79C60.35 50.99 61 50.35 61.8 50.35L66.8 50.35C67.59 50.35 68.24 50.99 68.24 51.79L68.24 55.41C68.24 56.89 68.78 58.32 69.77 59.44C71.23 61.08 72.03 63.19 72.03 65.39L72.03 68.72L74.7 68.72L74.7 47.89L53.89 47.89ZM53.89 71.63L53.89 92.4L57.07 92.4L57.07 86.33L56.78 86.33C55.98 86.33 55.34 85.69 55.34 84.89L55.34 77.95C55.34 77.15 55.98 76.51 56.78 76.51L71.81 76.51C72.61 76.51 73.26 77.15 73.26 77.95L73.26 84.89C73.26 85.69 72.61 86.33 71.81 86.33L71.52 86.33L71.52 92.4L74.7 92.4L74.7 71.63L53.89 71.63ZM70.37 83.44L70.37 79.4L58.23 79.4L58.23 83.44L70.37 83.44ZM59.96 92.4L68.63 92.4L68.63 86.33L59.96 86.33L59.96 92.4ZM53.97 108.82L63.68 108.82C63.72 108.82 63.75 108.79 63.75 108.75L63.75 105.96C63.75 105.92 63.72 105.89 63.68 105.89L53.97 105.89C53.93 105.89 53.89 105.92 53.89 105.96L53.89 108.75C53.89 108.79 53.93 108.82 53.97 108.82ZM65.35 55.41L65.35 53.24L63.24 53.24L63.24 55.41C63.24 57.6 62.44 59.71 60.99 61.35C60 62.47 59.46 63.9 59.46 65.39L59.46 68.72L69.14 68.72L69.14 65.39C69.14 63.9 68.59 62.47 67.61 61.35C66.15 59.71 65.35 57.6 65.35 55.41ZM68.27 116.11C68.31 116.11 68.35 116.07 68.35 116.03L68.35 111.79C68.35 111.75 68.31 111.71 68.27 111.71L53.97 111.71C53.93 111.71 53.89 111.75 53.89 111.79L53.89 116.03C53.89 116.07 53.93 116.11 53.97 116.11L68.27 116.11ZM82.47 116.11L85.26 116.11C85.3 116.11 85.34 116.07 85.34 116.03L85.34 106.32C85.34 106.29 85.3 106.25 85.26 106.25L82.47 106.25C82.44 106.25 82.4 106.29 82.4 106.32L82.4 116.03C82.4 116.07 82.44 116.11 82.47 116.11ZM91.05 116.11C91.09 116.11 91.12 116.07 91.12 116.03L91.12 101.73C91.12 101.69 91.09 101.65 91.05 101.65L88.3 101.65C88.26 101.65 88.23 101.69 88.23 101.73L88.23 116.03C88.23 116.07 88.26 116.11 88.3 116.11L91.05 116.11ZM98.33 116.11C98.37 116.11 98.4 116.08 98.4 116.04L98.4 101.72C98.4 101.68 98.37 101.65 98.33 101.65L94.09 101.65C94.05 101.65 94.01 101.69 94.01 101.73L94.01 116.03C94.01 116.07 94.05 116.11 94.09 116.11L98.33 116.11ZM122.11 116.11L122.11 95.29L101.3 95.29L101.3 116.11L106.21 116.11L106.21 106.42C106.21 105.62 106.86 104.98 107.66 104.98C108.46 104.98 109.1 105.62 109.1 106.42L109.1 116.11L122.11 116.11Z" />
							<path id="Path 120" class="shp6" d="M88 71.61C88.38 71.61 88.76 71.46 89.02 71.19C89.29 70.92 89.45 70.55 89.45 70.16C89.45 69.78 89.29 69.41 89.02 69.14C88.76 68.87 88.38 68.72 88 68.72C87.62 68.72 87.25 68.87 86.98 69.14C86.71 69.41 86.56 69.78 86.56 70.16C86.56 70.55 86.71 70.92 86.98 71.19C87.25 71.46 87.62 71.61 88 71.61Z" />
							<path id="Path 121" class="shp6" d="M107.66 99.09C107.28 99.09 106.9 99.24 106.64 99.51C106.37 99.78 106.21 100.15 106.21 100.53C106.21 100.91 106.37 101.29 106.64 101.56C106.9 101.82 107.28 101.98 107.66 101.98C108.04 101.98 108.41 101.82 108.68 101.56C108.95 101.29 109.1 100.91 109.1 100.53C109.1 100.15 108.95 99.78 108.68 99.51C108.41 99.24 108.04 99.09 107.66 99.09Z" />
						</g>
					</g>
				</g>
			</g>
		</g>
	</g>
</svg>