<svg xmlns="http://www.w3.org/2000/svg" viewBox="0 0 189 164" width="189" height="164">
	<defs>
		<clipPath clipPathUnits="userSpaceOnUse" id="cp1">
			<path d="M-1335 -3113L585 -3113L585 2906L-1335 2906Z" />
		</clipPath>
	</defs>
	<style>
		tspan { white-space:pre }
		.shp0 { fill: #ffe8f2 } 
		.shp1 { fill: #f78e00 } 
		.shp2 { fill: #ffceb6 } 
		.shp3 { fill: #b1712c } 
		.shp4 { fill: #e0edff } 
		.shp5 { fill: #ffb401 } 
		.shp6 { fill: #ffd0c7 } 
		.shp7 { fill: #fe0470 } 
		.shp8 { fill: #000000 } 
	</style>
	<g id="CovidZone" clip-path="url(#cp1)">
		<g id="How can Prevention it">
			<g id="Detalis">
				<g id="6">
					<g id="Icon">
						<path id="Path 53" class="shp0" d="M91.01 1.94C138.01 16.94 221.01 68.94 176.01 86.94C131.01 104.94 127.01 173.94 91.01 161.94C55.01 149.94 -21.99 110.94 6.01 86.94C34.01 62.94 44.01 -13.06 91.01 1.94Z" />
						<g id="avoid-crowds">
							<path id="Path 181" class="shp1" d="M82.75 52.82L69.62 52.82C66.72 52.82 64.37 55.17 64.37 58.07L64.37 64.63L69.62 64.63L69.62 75.13L82.75 75.13L82.75 64.63L88 64.63L88 58.07C88 55.17 85.65 52.82 82.75 52.82Z" />
							<path id="Path 182" class="shp2" d="M72.25 47.56L72.25 51.5C72.25 53.68 74.01 55.44 76.18 55.44C78.36 55.44 80.12 53.68 80.12 51.5L80.12 47.56L72.25 47.56Z" />
							<path id="Path 183" class="shp3" d="M76.18 42.31C78.36 42.31 80.12 44.08 80.12 46.25L80.12 47.56L72.25 47.56L72.25 46.25C72.25 44.08 74.01 42.31 76.18 42.31Z" />
							<path id="Path 184" class="shp1" d="M106.38 52.82L93.25 52.82C90.35 52.82 88 55.17 88 58.07L88 64.63L93.25 64.63L93.25 75.13L106.38 75.13L106.38 64.63L111.63 64.63L111.63 58.07C111.63 55.17 109.28 52.82 106.38 52.82Z" />
							<path id="Path 185" class="shp2" d="M95.88 47.56L95.88 51.5C95.88 53.68 97.64 55.44 99.82 55.44C101.99 55.44 103.75 53.68 103.75 51.5L103.75 47.56L95.88 47.56Z" />
							<path id="Path 186" class="shp3" d="M99.82 42.31C101.99 42.31 103.75 44.08 103.75 46.25L103.75 47.56L95.88 47.56L95.88 46.25C95.88 44.08 97.64 42.31 99.82 42.31Z" />
							<path id="Path 187" class="shp4" d="M57.81 113.2L70.93 113.2L73.56 117.14L73.56 118.46L55.18 118.46L55.18 117.14L57.81 113.2Z" />
							<path id="Path 188" class="shp2" d="M76.18 80.38L76.18 89.57C76.18 91.75 74.42 93.51 72.25 93.51L70.93 93.51L70.93 80.38L76.18 80.38Z" />
							<path id="Path 189" class="shp2" d="M57.81 80.38L57.81 93.51L56.49 93.51C54.32 93.51 52.55 91.75 52.55 89.57L52.55 80.38L57.81 80.38Z" />
							<path id="Path 190" class="shp5" d="M70.93 68.57L57.81 68.57C54.9 68.57 52.55 70.92 52.55 73.82L52.55 80.38L57.81 80.38L57.81 88.26L70.93 88.26L70.93 80.38L76.18 80.38L76.18 73.82C76.18 70.92 73.83 68.57 70.93 68.57Z" />
							<path id="Path 191" class="shp2" d="M60.43 63.32L60.43 67.26C60.43 69.43 62.19 71.19 64.37 71.19C66.54 71.19 68.31 69.43 68.31 67.26L68.31 63.32L60.43 63.32Z" />
							<path id="Path 192" class="shp6" d="M57.81 88.26L70.93 88.26L70.93 113.2L57.81 113.2L57.81 88.26Z" />
							<path id="Path 193" class="shp4" d="M81.44 113.2L94.56 113.2L97.19 117.14L97.19 118.46L78.81 118.46L78.81 117.14L81.44 113.2Z" />
							<path id="Path 194" class="shp2" d="M99.82 85.64L99.82 89.57C99.81 91.75 98.05 93.51 95.88 93.51L94.56 93.51L94.56 85.64L99.82 85.64Z" />
							<path id="Path 195" class="shp2" d="M81.44 85.64L81.44 93.51L80.12 93.51C77.95 93.51 76.19 91.75 76.18 89.57L76.18 85.64L81.44 85.64Z" />
							<path id="Path 196" class="shp7" d="M94.56 68.57L81.44 68.57C78.54 68.57 76.18 70.92 76.18 73.82L76.18 85.64L81.44 85.64L81.44 88.26L94.56 88.26L94.56 85.64L99.82 85.64L99.82 73.82C99.82 70.92 97.46 68.57 94.56 68.57Z" />
							<path id="Path 197" class="shp3" d="M91.94 63.32L91.94 61.09C91.94 59.42 90.58 58.07 88.92 58.07C88.32 58.07 87.73 58.24 87.24 58.57L84.06 60.69L84.06 63.32L91.94 63.32Z" />
							<path id="Path 198" class="shp2" d="M84.06 63.32L84.06 67.26C84.06 69.43 85.82 71.19 88 71.19C90.18 71.19 91.94 69.43 91.94 67.26L91.94 63.32L84.06 63.32Z" />
							<path id="Path 199" class="shp6" d="M81.44 88.26L94.56 88.26L94.56 113.2L81.44 113.2L81.44 88.26Z" />
							<path id="Path 200" class="shp3" d="M64.37 58.07C66.54 58.07 68.31 59.83 68.31 62.01L68.31 63.32L60.43 63.32L60.43 62.01C60.43 59.83 62.19 58.07 64.37 58.07L64.37 58.07Z" />
							<path id="Path 201" class="shp4" d="M105.07 113.2L118.19 113.2L120.82 117.14L120.82 118.46L102.44 118.46L102.44 117.14L105.07 113.2Z" />
							<path id="Path 202" class="shp2" d="M123.45 80.38L123.45 89.57C123.45 91.75 121.68 93.51 119.51 93.51L118.19 93.51L118.19 80.38L123.45 80.38Z" />
							<path id="Path 203" class="shp2" d="M105.07 80.38L105.07 93.51L103.75 93.51C101.58 93.51 99.82 91.75 99.82 89.57L99.82 80.38L105.07 80.38Z" />
							<path id="Path 204" class="shp5" d="M118.19 68.57L105.07 68.57C102.17 68.57 99.82 70.92 99.82 73.82L99.82 80.38L105.07 80.38L105.07 88.26L118.19 88.26L118.19 80.38L123.45 80.38L123.45 73.82C123.45 70.92 121.09 68.57 118.19 68.57Z" />
							<path id="Path 205" class="shp2" d="M107.69 63.32L107.69 67.26C107.69 69.43 109.46 71.19 111.63 71.19C113.81 71.19 115.57 69.43 115.57 67.26L115.57 63.32L107.69 63.32Z" />
							<path id="Path 206" class="shp6" d="M105.07 88.26L118.19 88.26L118.19 113.2L105.07 113.2L105.07 88.26Z" />
							<path id="Path 207" class="shp3" d="M111.63 58.07C113.81 58.07 115.57 59.83 115.57 62.01L115.57 63.32L107.69 63.32L107.69 62.01C107.69 59.83 109.46 58.07 111.63 58.07Z" />
							<path id="Path 208" fill-rule="evenodd" class="shp8" d="M127 43.24L113.24 57.01C115.41 57.71 116.88 59.72 116.88 62.01L116.88 67.26L118.19 67.26C121.82 67.26 124.75 70.2 124.76 73.82L124.76 89.57C124.76 92.47 122.41 94.82 119.51 94.83L119.51 112.81L121.91 116.42C122.06 116.63 122.13 116.88 122.13 117.14L122.13 118.46C122.13 119.18 121.55 119.77 120.82 119.77L102.44 119.77C101.72 119.77 101.13 119.18 101.13 118.46L101.13 117.14C101.13 116.88 101.2 116.63 101.35 116.42L103.75 112.81L103.75 94.83C102.25 94.83 100.81 94.18 99.82 93.04C98.82 94.18 97.39 94.83 95.88 94.83L95.88 112.81L98.28 116.42C98.43 116.63 98.5 116.88 98.5 117.14L98.5 118.46C98.5 119.18 97.91 119.77 97.19 119.77L78.81 119.77C78.09 119.77 77.5 119.18 77.5 118.46L77.5 117.14C77.5 116.88 77.57 116.63 77.72 116.42L80.12 112.81L80.12 94.83C78.86 94.83 77.65 94.37 76.69 93.55L72.25 97.99L72.25 112.81L74.65 116.42C74.79 116.63 74.87 116.88 74.87 117.14L74.87 118.46C74.87 119.18 74.28 119.77 73.56 119.77L56.49 119.77L56.49 117.14L63.06 117.14L63.06 114.52L60.43 114.52L60.43 111.89L63.06 111.89L63.06 107.18L50.86 119.38L49 117.53L56.49 110.04L56.49 94.83C53.59 94.82 51.24 92.47 51.24 89.57L51.24 73.82C51.25 70.2 54.18 67.26 57.81 67.26L59.12 67.26L59.12 62.01C59.12 59.57 60.79 57.46 63.16 56.89C63.73 53.78 66.45 51.51 69.62 51.5L70.93 51.5L70.93 46.25C70.93 43.35 73.28 41 76.18 41C79.08 41 81.44 43.35 81.44 46.25L81.44 51.5L82.75 51.5C84.82 51.5 86.76 52.48 88 54.13C89.24 52.48 91.18 51.5 93.25 51.5L94.56 51.5L94.56 46.25C94.56 43.35 96.92 41 99.82 41C102.72 41 105.07 43.35 105.07 46.25L105.07 51.5L106.38 51.5C107.53 51.5 108.66 51.81 109.66 52.38L108.35 54.65C107.75 54.31 107.07 54.13 106.38 54.13L104.36 54.13C103.42 55.75 101.69 56.75 99.82 56.75C97.94 56.75 96.21 55.75 95.27 54.13L93.25 54.13C91.57 54.13 90.07 55.2 89.52 56.8C91.66 57.1 93.25 58.93 93.25 61.09L93.25 67.26L94.56 67.26C95.85 67.25 97.11 67.63 98.18 68.35L125.14 41.38L127 43.24ZM99.82 54.13C101.26 54.13 102.44 52.95 102.44 51.5L102.44 48.88L97.19 48.88L97.19 51.5C97.19 52.95 98.37 54.13 99.82 54.13ZM97.19 46.25L102.44 46.25C102.44 44.8 101.26 43.63 99.82 43.63C98.37 43.63 97.19 44.8 97.19 46.25ZM93.25 89.57L82.75 89.57L82.75 111.89L86.69 111.89L86.69 94.83L89.31 94.83L89.31 111.89L93.25 111.89L93.25 89.57ZM72.25 92.2C73.7 92.2 74.87 91.02 74.87 89.57L74.87 81.7L72.25 81.7L72.25 92.2ZM79.58 86.95L77.5 86.95L77.5 89.03L79.58 86.95ZM93.25 86.95L93.25 76.99L83.29 86.95L93.25 86.95ZM95.88 75.13L95.88 84.32L98.5 84.32L98.5 73.82C98.5 73.23 98.37 72.65 98.12 72.12L95.11 75.13L95.88 75.13ZM106.38 63.86L102.43 67.81C103.26 67.44 104.16 67.26 105.07 67.26L106.38 67.26L106.38 63.86ZM109 67.26C109 68.71 110.18 69.88 111.63 69.88C113.08 69.88 114.26 68.71 114.26 67.26L114.26 64.63L109 64.63L109 67.26ZM92.54 69.88C91.61 71.51 89.88 72.51 88 72.51C86.12 72.51 84.39 71.51 83.46 69.88L81.44 69.88C79.26 69.88 77.5 71.65 77.5 73.82L77.5 84.32L80.12 84.32L80.12 75.13L82.75 75.13L82.75 83.78L96.26 70.27C95.73 70.01 95.15 69.88 94.56 69.88L92.54 69.88ZM85.37 67.26C85.37 68.71 86.55 69.88 88 69.88C89.45 69.88 90.63 68.71 90.63 67.26L90.63 64.63L85.37 64.63L85.37 67.26ZM90.63 61.09C90.63 60.46 90.28 59.88 89.72 59.58C89.17 59.28 88.49 59.32 87.97 59.67L85.37 61.39L85.37 62.01L90.63 62.01L90.63 61.09ZM73.56 51.5C73.56 52.95 74.73 54.13 76.18 54.13C77.63 54.13 78.81 52.95 78.81 51.5L78.81 48.88L73.56 48.88L73.56 51.5ZM73.56 46.25L78.81 46.25C78.81 44.8 77.63 43.63 76.18 43.63C74.74 43.63 73.56 44.8 73.56 46.25ZM69.62 54.13C67.87 54.13 66.33 55.29 65.84 56.96C68.08 57.62 69.62 59.67 69.62 62.01L69.62 67.26L70.93 67.26C73 67.26 74.95 68.23 76.18 69.89C77.42 68.23 79.37 67.26 81.44 67.26L82.75 67.26L82.75 60.69C82.75 60.25 82.97 59.84 83.33 59.6L86.51 57.48C86.55 57.46 86.59 57.43 86.63 57.41C86.31 55.52 84.67 54.13 82.75 54.13L80.73 54.13C79.79 55.75 78.06 56.75 76.18 56.75C74.31 56.75 72.58 55.75 71.64 54.13L69.62 54.13ZM61.74 67.26C61.74 68.71 62.92 69.88 64.37 69.88C65.82 69.88 66.99 68.71 66.99 67.26L66.99 64.63L61.74 64.63L61.74 67.26ZM64.37 59.38C62.92 59.38 61.75 60.56 61.74 62.01L66.99 62.01C66.99 60.56 65.82 59.38 64.37 59.38ZM53.87 73.82L53.87 79.07L56.49 79.07L56.49 75.13L59.12 75.13L59.12 86.95L69.62 86.95L69.62 75.13L72.25 75.13L72.25 79.07L74.87 79.07L74.87 73.82C74.87 71.65 73.11 69.88 70.93 69.88L68.91 69.88C67.98 71.51 66.24 72.51 64.37 72.51C62.49 72.51 60.76 71.51 59.82 69.88L57.81 69.88C55.63 69.88 53.87 71.65 53.87 73.82ZM53.87 89.57C53.87 91.02 55.04 92.2 56.49 92.2L56.49 81.7L53.87 81.7L53.87 89.57ZM63.06 103.47L63.06 94.83L65.68 94.83L65.68 100.85L69.62 96.91L69.62 89.57L59.12 89.57L59.12 107.41L63.06 103.47ZM71.98 117.14L70.23 114.52L65.68 114.52L65.68 117.14L71.98 117.14ZM69.62 100.62L65.68 104.56L65.68 111.89L69.62 111.89L69.62 100.62ZM80.12 92.2L80.12 90.12L78.56 91.68C79.01 92.02 79.56 92.2 80.12 92.2ZM80.39 117.14L86.69 117.14L86.69 114.52L82.14 114.52L80.39 117.14ZM95.61 117.14L93.86 114.52L89.31 114.52L89.31 117.14L95.61 117.14ZM98.5 89.57L98.5 86.95L95.88 86.95L95.88 92.2C97.33 92.2 98.5 91.02 98.5 89.57ZM101.13 89.57C101.13 91.02 102.3 92.2 103.75 92.2L103.75 81.7L101.13 81.7L101.13 89.57ZM116.88 89.57L106.38 89.57L106.38 111.89L110.32 111.89L110.32 94.83L112.94 94.83L112.94 111.89L116.88 111.89L116.88 89.57ZM104.02 117.14L110.32 117.14L110.32 114.52L105.77 114.52L104.02 117.14ZM119.24 117.14L117.49 114.52L112.94 114.52L112.94 117.14L119.24 117.14ZM119.51 92.2C120.96 92.2 122.13 91.02 122.13 89.57L122.13 81.7L119.51 81.7L119.51 92.2ZM116.18 69.88C115.24 71.51 113.51 72.51 111.63 72.51C109.76 72.51 108.02 71.51 107.09 69.88L105.07 69.88C102.89 69.88 101.13 71.65 101.13 73.82L101.13 79.07L103.75 79.07L103.75 75.13L106.38 75.13L106.38 86.95L116.88 86.95L116.88 75.13L119.51 75.13L119.51 79.07L122.13 79.07L122.13 73.82C122.13 71.65 120.37 69.88 118.19 69.88L116.18 69.88ZM111.63 59.38C111.31 59.38 110.98 59.44 110.68 59.56L109.18 61.06C109.07 61.36 109 61.68 109 62.01L114.26 62.01C114.25 60.56 113.08 59.38 111.63 59.38Z" />
						</g>
					</g>
				</g>
			</g>
		</g>
	</g>
</svg>