<svg xmlns="http://www.w3.org/2000/svg" viewBox="0 0 189 164" width="189" height="164">
	<defs>
		<clipPath clipPathUnits="userSpaceOnUse" id="cp1">
			<path d="M-260 -2742L1660 -2742L1660 3277L-260 3277Z" />
		</clipPath>
	</defs>
	<style>
		tspan { white-space:pre }
		.shp0 { fill: #ffe8f2 } 
		.shp1 { fill: #ffd0c7 } 
		.shp2 { fill: #fed2a4 } 
		.shp3 { fill: #ffa700 } 
		.shp4 { fill: #ffbd86 } 
		.shp5 { fill: #fe0470 } 
		.shp6 { fill: #cb0476 } 
		.shp7 { fill: #000000 } 
	</style>
	<g id="CovidZone" clip-path="url(#cp1)">
		<g id="How can Prevention it">
			<g id="Detalis">
				<g id="1">
					<g id="Icon">
						<path id="Path 53" class="shp0" d="M91.01 1.94C138.01 16.94 221.01 68.94 176.01 86.94C131.01 104.94 127.01 173.94 91.01 161.94C55.01 149.94 -21.99 110.94 6.01 86.94C34.01 62.94 44.01 -13.06 91.01 1.94Z" />
						<g id="handshake">
							<g id="Group 6">
								<path id="Path 55" class="shp1" d="M118.17 64.29L114.36 60.89C112.8 59.49 110.78 58.72 108.68 58.72L101.92 58.72L101.92 70.49L101.93 70.49L101.93 70.49L101.92 70.49L98.24 70.49L98.24 89.19L105.56 89.19L128.57 89.19L128.57 64.29L118.17 64.29Z" />
								<path id="Path 56" class="shp1" d="M115.41 89.19C115.43 88.98 115.44 88.77 115.44 88.56C115.44 87.07 114.98 85.64 114.11 84.42L101.47 70.01L100.45 70.49L101.92 70.49L101.93 70.49L101.93 70.49L101.92 70.49L98.24 70.49L98.24 89.19L105.56 89.19L115.41 89.19Z" />
								<g id="Group 3">
									<g id="XMLID_99_">
										<g id="Group 2">
											<path id="Path 57" class="shp2" d="M104.06 89.51C105.32 91.31 104.9 93.79 103.11 95.07C102.4 95.58 101.59 95.82 100.78 95.82C99.53 95.82 98.3 95.24 97.52 94.15L97.08 93.53C98.36 95.33 97.95 97.83 96.15 99.12C95.45 99.62 94.63 99.87 93.82 99.87C92.57 99.87 91.34 99.29 90.56 98.19L90.31 97.85C91.6 99.64 91.19 102.15 89.39 103.44C88.68 103.94 87.87 104.19 87.06 104.19C85.81 104.19 84.58 103.6 83.8 102.51L74.55 89.44C74.45 89.28 74.27 89.19 74.08 89.19L59.38 89.22L59.38 63.98L70.47 63.98L71.68 62.73C73.31 61.04 75.56 60.09 77.91 60.09L90.74 60.09L100.45 70.49L111.57 86.23C112.07 86.94 112.32 87.75 112.32 88.56C112.32 89.81 111.73 91.04 110.64 91.82C108.84 93.11 106.34 92.7 105.05 90.9L104.06 89.51Z" />
										</g>
									</g>
								</g>
								<g id="Group 5">
									<g id="XMLID_96_">
										<g id="Group 4">
											<path id="Path 58" class="shp3" d="M132.83 62.92L132.83 90.54C132.83 91.21 132.29 91.76 131.61 91.76L122.17 91.76C121.32 91.76 120.64 91.08 120.64 90.24L120.64 63.23C120.64 62.39 121.32 61.71 122.17 61.71L131.61 61.71C132.29 61.71 132.83 62.25 132.83 62.92Z" />
											<path id="Path 59" class="shp4" d="M86.32 99.75C87.1 100.84 88.33 101.43 89.58 101.43C90.04 101.43 90.49 101.35 90.93 101.19C90.7 102.06 90.18 102.87 89.39 103.44C88.68 103.94 87.87 104.19 87.06 104.19C85.81 104.19 84.58 103.6 83.8 102.51L74.55 89.44C74.45 89.28 74.27 89.19 74.08 89.19L59.38 89.22L59.38 63.98L70.47 63.98L70.64 63.81L70.64 83.59C70.64 85.17 71.91 86.44 73.49 86.44L75.73 86.44C76.5 86.44 77.23 86.82 77.67 87.45L86.32 99.75Z" />
											<path id="Path 60" class="shp5" d="M67.51 63.23L67.51 90.24C67.51 91.08 66.83 91.76 65.99 91.76L56.04 91.76C55.56 91.76 55.17 91.37 55.17 90.89L55.17 62.58C55.17 62.1 55.56 61.71 56.04 61.71L65.99 61.71C66.83 61.71 67.51 62.39 67.51 63.23Z" />
											<path id="Path 61" class="shp6" d="M65.99 86.14L56.04 86.14C55.56 86.14 55.17 85.75 55.17 85.27L55.17 90.89C55.17 91.37 55.56 91.76 56.04 91.76L65.99 91.76C66.83 91.76 67.51 91.08 67.51 90.24L67.51 84.62C67.51 85.46 66.83 86.14 65.99 86.14Z" />
										</g>
									</g>
								</g>
								<path id="Path 62" class="shp4" d="M100.45 70.49L90.74 60.09L86.63 60.09L78.89 69.14C77.86 70.34 77.29 71.88 77.29 73.47C77.29 75.25 77.98 76.92 79.24 78.18C80.5 79.44 82.17 80.13 83.95 80.13C85.46 80.13 86.94 79.61 88.12 78.66L94.41 73.61L102.65 73.61L100.45 70.49Z" />
								<path id="Path 63" class="shp1" d="M101.92 58.72L93.72 58.72C92.57 58.72 91.49 59.22 90.74 60.09L81.26 71.17C80.7 71.83 80.41 72.65 80.41 73.47C80.41 74.38 80.76 75.28 81.45 75.97C82.73 77.25 84.76 77.36 86.16 76.23L92.92 70.8C93.17 70.6 93.48 70.49 93.8 70.49L101.92 70.49L101.92 58.72L101.92 58.72Z" />
							</g>
							<g id="Group 7">
								<path id="Path 64" class="shp7" d="M55.17 62.88L65.99 62.88C66.18 62.88 66.34 63.04 66.34 63.23L66.34 80.54C66.34 81.19 66.87 81.71 67.51 81.71C68.16 81.71 68.68 81.19 68.68 80.54L68.68 65.15L70.47 65.15C70.79 65.15 71.09 65.02 71.31 64.79L72.52 63.55C73.93 62.1 75.89 61.26 77.91 61.26L88.2 61.26L80.37 70.41C78.79 72.26 78.89 75.07 80.62 76.8C81.54 77.71 82.74 78.18 83.95 78.18C84.99 78.18 86.03 77.84 86.9 77.14L93.72 71.66L99.84 71.66L106.08 80.5C106.31 80.82 106.67 80.99 107.04 80.99C107.27 80.99 107.51 80.92 107.71 80.78C108.24 80.4 108.37 79.67 107.99 79.14L102.57 71.47C102.89 71.26 103.1 70.9 103.1 70.49C103.1 69.84 102.57 69.32 101.93 69.32L93.31 69.32C93.04 69.32 92.78 69.41 92.57 69.58L85.43 75.31C84.49 76.07 83.13 76 82.28 75.14C81.41 74.27 81.36 72.86 82.15 71.93L91.63 60.85C92.15 60.24 92.92 59.89 93.72 59.89L103.88 59.89C104.53 59.89 105.06 59.37 105.06 58.72C105.06 58.07 104.53 57.55 103.88 57.55L93.72 57.55C92.42 57.55 91.18 58.04 90.24 58.92L77.91 58.92C75.26 58.92 72.68 60.01 70.84 61.92L69.98 62.81L68.65 62.81C68.44 61.52 67.33 60.54 65.99 60.54L55.17 60.54C54.52 60.54 54 61.06 54 61.71C54 62.35 54.52 62.88 55.17 62.88L55.17 62.88Z" />
								<path id="Path 65" class="shp7" d="M132.83 90.59L122.17 90.59C121.97 90.59 121.81 90.43 121.81 90.24L121.81 63.23C121.81 63.04 121.97 62.88 122.17 62.88L132.83 62.88C133.48 62.88 134 62.35 134 61.71C134 61.06 133.48 60.54 132.83 60.54L122.17 60.54C120.72 60.54 119.54 61.68 119.48 63.12L118.62 63.12L115.14 60.01C113.43 58.48 111.21 57.6 108.9 57.55C108.25 57.54 107.72 58.05 107.71 58.7C107.69 59.34 108.2 59.88 108.85 59.89C110.6 59.93 112.28 60.6 113.58 61.76L117.39 65.16C117.6 65.35 117.88 65.46 118.17 65.46L119.47 65.46L119.47 88.02L113.46 88.02C113.37 87.14 113.05 86.29 112.52 85.56L110.87 83.22C110.5 82.69 109.77 82.57 109.24 82.94C108.71 83.31 108.59 84.05 108.96 84.57L110.61 86.91C111.05 87.53 111.23 88.28 111.11 89.03C110.98 89.78 110.57 90.43 109.96 90.87C109.34 91.31 108.59 91.49 107.85 91.36C107.1 91.24 106.44 90.83 106 90.22L102.77 85.7C102.4 85.18 101.66 85.06 101.14 85.43C100.61 85.81 100.49 86.54 100.87 87.07L103.08 90.16C103.99 91.43 103.7 93.21 102.43 94.12C101.81 94.56 101.06 94.74 100.32 94.61C99.57 94.49 98.91 94.08 98.47 93.46L96.26 90.37C95.88 89.84 95.15 89.72 94.62 90.1C94.1 90.48 93.98 91.21 94.35 91.73L96.13 94.21C97.04 95.48 96.74 97.26 95.47 98.17C94.2 99.08 92.42 98.78 91.51 97.51L89.74 95.03C89.36 94.51 88.63 94.39 88.11 94.76C87.58 95.14 87.46 95.87 87.84 96.4L89.36 98.53C89.8 99.14 89.98 99.89 89.85 100.64C89.73 101.39 89.32 102.04 88.71 102.48C87.43 103.39 85.66 103.1 84.75 101.84L75.51 88.76C75.18 88.3 74.65 88.02 74.08 88.02L68.68 88.02L68.68 85.53C68.68 84.89 68.16 84.36 67.51 84.36C66.87 84.36 66.34 84.89 66.34 85.53L66.34 90.23C66.34 90.43 66.18 90.59 65.99 90.59L55.17 90.59C54.52 90.59 54 91.11 54 91.76C54 92.4 54.52 92.93 55.17 92.93L65.99 92.93C67.43 92.93 68.61 91.79 68.68 90.36L73.77 90.36L82.84 103.19C83.85 104.6 85.45 105.36 87.06 105.36C88.11 105.36 89.16 105.04 90.07 104.39C91.19 103.58 91.94 102.39 92.16 101.02C92.18 100.94 92.19 100.86 92.2 100.77C92.72 100.95 93.27 101.04 93.83 101.04C94.87 101.04 95.92 100.72 96.83 100.07C98.01 99.23 98.73 97.98 98.93 96.65C99.25 96.78 99.59 96.87 99.93 96.92C100.22 96.97 100.5 96.99 100.79 96.99C101.86 96.99 102.9 96.66 103.79 96.02C104.82 95.29 105.5 94.24 105.79 93.09C106.3 93.38 106.87 93.58 107.46 93.67C107.75 93.72 108.03 93.74 108.32 93.74C109.39 93.74 110.43 93.41 111.32 92.78C112.18 92.16 112.81 91.33 113.16 90.36L119.48 90.36C119.55 91.79 120.72 92.93 122.16 92.93L132.83 92.93C133.47 92.93 134 92.4 134 91.76C134 91.11 133.48 90.59 132.83 90.59L132.83 90.59Z" />
								<path id="Path 66" class="shp7" d="M94 51.41C94.65 51.41 95.17 50.89 95.17 50.24L95.17 46.17C95.17 45.52 94.65 45 94 45C93.35 45 92.83 45.52 92.83 46.17L92.83 50.24C92.83 50.89 93.35 51.41 94 51.41Z" />
								<path id="Path 67" class="shp7" d="M105.65 53.81C105.81 53.87 105.97 53.9 106.12 53.9C106.57 53.9 107 53.64 107.2 53.2L108.82 49.47C109.08 48.88 108.81 48.19 108.21 47.93C107.62 47.67 106.93 47.94 106.67 48.53L105.05 52.26C104.79 52.86 105.06 53.55 105.65 53.81Z" />
								<path id="Path 68" class="shp7" d="M80.8 53.2C81 53.64 81.43 53.9 81.88 53.9C82.03 53.9 82.19 53.87 82.35 53.81C82.94 53.55 83.21 52.86 82.95 52.26L81.33 48.53C81.07 47.94 80.38 47.67 79.79 47.93C79.19 48.19 78.92 48.88 79.18 49.47L80.8 53.2Z" />
								<path id="Path 69" class="shp7" d="M94 111.63C93.35 111.63 92.83 112.16 92.83 112.8L92.83 116.87C92.83 117.52 93.35 118.04 94 118.04C94.65 118.04 95.17 117.52 95.17 116.87L95.17 112.8C95.17 112.16 94.65 111.63 94 111.63Z" />
								<path id="Path 70" class="shp7" d="M107.2 109.84C106.94 109.25 106.25 108.98 105.65 109.24C105.06 109.49 104.79 110.18 105.05 110.78L106.67 114.51C106.86 114.95 107.3 115.21 107.75 115.21C107.9 115.21 108.06 115.18 108.21 115.11C108.81 114.86 109.08 114.17 108.82 113.57L107.2 109.84Z" />
								<path id="Path 71" class="shp7" d="M82.35 109.24C81.75 108.98 81.06 109.25 80.8 109.84L79.18 113.57C78.92 114.17 79.19 114.86 79.79 115.11C79.94 115.18 80.1 115.21 80.25 115.21C80.7 115.21 81.13 114.95 81.33 114.51L82.95 110.78C83.21 110.18 82.94 109.49 82.35 109.24L82.35 109.24Z" />
							</g>
						</g>
					</g>
				</g>
			</g>
		</g>
	</g>
</svg>