<svg xmlns="http://www.w3.org/2000/svg" viewBox="0 0 189 164" width="189" height="164">
	<defs>
		<clipPath clipPathUnits="userSpaceOnUse" id="cp1">
			<path d="M-798 -3113L1122 -3113L1122 2906L-798 2906Z" />
		</clipPath>
	</defs>
	<style>
		tspan { white-space:pre }
		.shp0 { fill: #ffe8f2 } 
		.shp1 { fill: #ffa700 } 
		.shp2 { fill: #78b9c1 } 
		.shp3 { fill: #ffd0c7 } 
		.shp4 { fill: #fe0470 } 
		.shp5 { fill: #fdc8a2 } 
		.shp6 { fill: #000000 } 
	</style>
	<g id="CovidZone" clip-path="url(#cp1)">
		<g id="How can Prevention it">
			<g id="Detalis">
				<g id="5">
					<g id="Icon">
						<path id="Path 53" class="shp0" d="M91.01 1.94C138.01 16.94 221.01 68.94 176.01 86.94C131.01 104.94 127.01 173.94 91.01 161.94C55.01 149.94 -21.99 110.94 6.01 86.94C34.01 62.94 44.01 -13.06 91.01 1.94Z" />
						<g id="Filled outline">
							<path id="Path 170" class="shp1" d="M63.4 59.2L79 59.2L79 67L63.4 67L63.4 59.2Z" />
							<path id="Path 171" class="shp1" d="M94.6 50.1L89.4 50.1L88.1 48.8L79 48.8L79 43.6L88.1 43.6C91.69 43.6 94.6 46.51 94.6 50.1Z" />
							<path id="Path 172" class="shp1" d="M68.6 50.1L73.8 50.1L73.8 59.2L68.6 59.2L68.6 50.1Z" />
							<path id="Path 173" class="shp2" d="M68.6 50.1L73.8 50.1L73.8 52.7L68.6 52.7L68.6 50.1Z" />
							<path id="Path 174" class="shp3" d="M79 67L63.4 67C58.01 68.54 54.3 73.46 54.3 79.06L54.3 113.8C54.3 115.95 56.05 117.7 58.2 117.7L84.2 117.7C86.35 117.7 88.1 115.95 88.1 113.8L88.1 79.06C88.1 73.46 84.39 68.54 79 67L79 67Z" />
							<path id="Path 175" class="shp1" d="M63.4 42.3L79 42.3L79 50.1L63.4 50.1L63.4 42.3Z" />
							<path id="Path 176" class="shp4" d="M95.9 64.18L95.9 64.4C95.9 66.55 94.15 68.3 92 68.3C89.85 68.3 88.1 66.55 88.1 64.4L88.1 64.18C88.1 63.47 88.29 62.78 88.66 62.17L92 56.6L95.34 62.17C95.71 62.78 95.9 63.47 95.9 64.18L95.9 64.18Z" />
							<path id="Path 177" class="shp1" d="M68.6 67L73.8 67L73.8 80L68.6 80L68.6 67Z" />
							<path id="Path 178" class="shp4" d="M54.3 80L88.1 80L88.1 109.9L54.3 109.9L54.3 80Z" />
							<path id="Path 179" class="shp5" d="M65.01 93.95L79.34 107.72C80.79 109.12 82.73 109.9 84.74 109.9L129.7 109.9L129.7 89.1L126.22 86.61C122.56 84 118.19 82.6 113.7 82.6C111.38 82.6 109.08 82.97 106.88 83.71L102.4 85.2L88.75 85.2C86.24 85.2 84.2 87.24 84.2 89.75C84.2 92.26 86.24 94.3 88.75 94.3L99.88 94.3C101.27 94.3 102.4 95.43 102.4 96.82L102.4 96.9C102.4 98.34 101.24 99.5 99.8 99.5L85.5 99.5L71.87 86.53C70.01 84.82 67.16 84.75 65.22 86.37C64.1 87.3 63.44 88.66 63.4 90.11C63.36 91.57 63.95 92.96 65.01 93.95L65.01 93.95Z" />
							<path id="Path 180" fill-rule="evenodd" class="shp6" d="M53 113.8L53 79.06C52.99 76.05 53.97 73.12 55.79 70.72L57.87 72.29C56.47 74.14 55.68 76.38 55.61 78.7L67.3 78.7L67.3 68.3L63.59 68.3C61.91 68.81 60.37 69.7 59.1 70.91L57.3 69.03C58.68 67.72 60.32 66.71 62.1 66.06L62.1 59.2C62.1 58.48 62.68 57.9 63.4 57.9L67.3 57.9L67.3 51.4L63.4 51.4C62.68 51.4 62.1 50.82 62.1 50.1L62.1 42.3C62.1 41.58 62.68 41 63.4 41L79 41C79.72 41 80.3 41.58 80.3 42.3L88.1 42.3C92.41 42.3 95.9 45.79 95.9 50.1C95.9 50.82 95.32 51.4 94.6 51.4L89.4 51.4C89.06 51.4 88.72 51.26 88.48 51.02L87.56 50.1L80.3 50.1C80.3 50.82 79.72 51.4 79 51.4L75.1 51.4L75.1 57.9L79 57.9C79.72 57.9 80.3 58.48 80.3 59.2L80.3 66.06C85.75 68.07 89.38 73.25 89.4 79.06L89.4 81.3L55.6 81.3L55.6 108.6L75.1 108.6L75.1 111.2L55.6 111.2L55.6 113.8C55.6 115.24 56.76 116.4 58.2 116.4L84.2 116.4C85.64 116.4 86.8 115.24 86.8 113.8L89.4 113.8C89.4 116.67 87.07 119 84.2 119L58.2 119C55.33 119 53 116.67 53 113.8ZM80.3 47.5L88.1 47.5C88.44 47.5 88.78 47.64 89.02 47.88L89.94 48.8L93.14 48.8C92.54 46.51 90.47 44.9 88.1 44.9L80.3 44.9L80.3 47.5ZM72.5 68.3L69.9 68.3L69.9 78.7L72.5 78.7L72.5 68.3ZM86.79 78.7C86.62 73.89 83.42 69.71 78.81 68.3L75.1 68.3L75.1 78.7L86.79 78.7ZM77.7 48.8L77.7 43.6L64.7 43.6L64.7 48.8L77.7 48.8ZM69.9 51.4L69.9 57.9L72.5 57.9L72.5 51.4L69.9 51.4ZM77.7 65.7L77.7 60.5L64.7 60.5L64.7 65.7L77.7 65.7ZM58.43 77.1C59.08 74.3 61.08 72.01 63.76 70.99L64.69 73.41C62.81 74.13 61.42 75.74 60.96 77.7L58.43 77.1ZM92 55.3C92.46 55.3 92.88 55.54 93.11 55.93L96.46 61.5C96.97 62.38 97.22 63.38 97.2 64.4C97.2 67.27 94.87 69.6 92 69.6C87.94 69.6 85.47 64.95 87.54 61.5L90.89 55.93C91.12 55.54 91.54 55.3 92 55.3ZM94.61 64.18C94.6 63.71 94.47 63.25 94.23 62.84L92 59.13L89.77 62.84C88.74 64.56 89.94 67 92 67C93.58 67 94.64 65.61 94.61 64.18ZM131 109.9C131 110.62 130.42 111.2 129.7 111.2L84.74 111.2C82.39 111.2 80.13 110.29 78.44 108.66L64.11 94.9C61.54 92.51 61.38 88.49 63.77 85.91C66.16 83.34 70.18 83.18 72.75 85.57L72.77 85.59L86.02 98.2L99.8 98.2C100.52 98.2 101.1 97.62 101.1 96.9L101.1 96.82C101.1 96.15 100.55 95.6 99.88 95.6L88.75 95.6C85.52 95.6 82.9 92.98 82.9 89.75C82.9 86.52 85.52 83.9 88.75 83.9L102.19 83.9L106.47 82.47C112.47 80.47 119.02 81.05 124.57 84.06L123.34 86.34C118.41 83.68 112.61 83.17 107.29 84.94L102.81 86.43C102.68 86.48 102.54 86.5 102.4 86.5L88.75 86.5C86.96 86.5 85.5 87.95 85.5 89.75C85.5 91.54 86.96 93 88.75 93L99.88 93C101.99 93 103.7 94.71 103.7 96.82L103.7 96.9C103.7 99.05 101.96 100.8 99.8 100.8L85.5 100.8C85.17 100.8 84.85 100.67 84.6 100.44L70.99 87.48C69.46 86.07 67.08 86.17 65.68 87.69C64.27 89.22 64.37 91.6 65.89 93L65.91 93.02L80.24 106.79C81.44 107.95 83.06 108.6 84.74 108.6L128.4 108.6L128.4 89.77L125.46 87.67L126.97 85.55L130.46 88.04C130.8 88.29 131 88.68 131 89.1L131 109.9Z" />
						</g>
					</g>
				</g>
			</g>
		</g>
	</g>
</svg>