<svg xmlns="http://www.w3.org/2000/svg" viewBox="0 0 189 164" width="189" height="164">
	<defs>
		<clipPath clipPathUnits="userSpaceOnUse" id="cp1">
			<path d="M-260 -3113L1660 -3113L1660 2906L-260 2906Z" />
		</clipPath>
	</defs>
	<style>
		tspan { white-space:pre }
		.shp0 { fill: #ffe8f2 } 
		.shp1 { fill: #fdb683 } 
		.shp2 { fill: #4db6e4 } 
		.shp3 { fill: #fe0470 } 
		.shp4 { fill: #ffd0c7 } 
		.shp5 { fill: #fdc8a2 } 
		.shp6 { fill: #3ba5d3 } 
		.shp7 { fill: #000000 } 
	</style>
	<g id="CovidZone" clip-path="url(#cp1)">
		<g id="How can Prevention it">
			<g id="Detalis">
				<g id="4">
					<g id="Icon">
						<path id="Path 53" class="shp0" d="M91.01 1.94C138.01 16.94 221.01 68.94 176.01 86.94C131.01 104.94 127.01 173.94 91.01 161.94C55.01 149.94 -21.99 110.94 6.01 86.94C34.01 62.94 44.01 -13.06 91.01 1.94Z" />
						<g id="Filled outline">
							<path id="Path 163" class="shp1" d="M119.8 66.6L119.01 65.97C114.89 62.67 110.35 59.93 105.52 57.81L93.18 52.92C91.55 52.21 89.65 52.71 88.58 54.13C87.95 54.97 87.69 56.01 87.86 57.04C88.02 58.07 88.6 58.98 89.45 59.58L100.2 66.6L70.8 66.6C68.48 66.6 66.6 68.48 66.6 70.8C66.6 73.12 68.48 75 70.8 75L69.4 75C67.08 75 65.2 76.88 65.2 79.2C65.2 81.52 67.08 83.4 69.4 83.4L72.2 83.4C69.88 83.4 68 85.28 68 87.6C68 89.92 69.88 91.8 72.2 91.8L76.4 91.8C74.08 91.8 72.2 93.68 72.2 96C72.2 98.32 74.08 100.2 76.4 100.2L102.01 100.2C108.18 100.2 114.28 97.36 119.8 94.6L124 94.6L124 66.6L119.8 66.6Z" />
							<path id="Ellipse 23" class="shp2" d="M78 61C76.34 61 75 59.88 75 58.5C75 57.12 76.34 56 78 56C79.66 56 81 57.12 81 58.5C81 59.88 79.66 61 78 61Z" />
							<path id="Path 164" class="shp3" d="M83.11 122.6L69.4 55.4L58.2 55.4L44.49 122.6L83.11 122.6Z" />
							<path id="Path 165" class="shp4" d="M55.4 41.4L40 41.4L40 51.2L54 51.2C56.32 51.2 58.2 53.08 58.2 55.4L69.4 55.4C69.4 47.67 63.13 41.4 55.4 41.4L55.4 41.4Z" />
							<path id="Path 166" class="shp5" d="M108.6 89L107.81 88.37C103.69 85.07 99.15 82.33 94.32 80.21L84.8 76.72C83.17 76.01 81.26 76.51 80.19 77.93C79.57 78.76 79.31 79.81 79.48 80.84C79.64 81.87 80.21 82.78 81.06 83.38L89 89L59.6 89C57.28 89 55.4 90.88 55.4 93.2C55.4 95.52 57.28 97.4 59.6 97.4L58.2 97.4C55.88 97.4 54 99.28 54 101.6C54 103.92 55.88 105.8 58.2 105.8L61 105.8C58.68 105.8 56.8 107.68 56.8 110C56.8 112.32 58.68 114.2 61 114.2L65.2 114.2C62.88 114.2 61 116.08 61 118.4C61 120.72 62.88 122.6 65.2 122.6L90.81 122.6C96.98 122.6 104.48 119.76 110 117L124 117L124 89L108.6 89Z" />
							<path id="Path 167" class="shp6" d="M59.76 81.04L60.8 62.15L63.59 62.3L62.55 81.19L59.76 81.04Z" />
							<path id="Path 168" class="shp6" d="M65.38 69.7L68.17 69.48L69.39 84.7L66.6 84.93L65.38 69.7Z" />
							<path id="Ellipse 24" class="shp2" d="M46 99C44.34 99 43 97.66 43 96C43 94.34 44.34 93 46 93C47.66 93 49 94.34 49 96C49 97.66 47.66 99 46 99Z" />
							<path id="Ellipse 25" class="shp2" d="M92 108C90.34 108 89 106.88 89 105.5C89 104.12 90.34 103 92 103C93.66 103 95 104.12 95 105.5C95 106.88 93.66 108 92 108Z" />
							<path id="Path 169" fill-rule="evenodd" class="shp7" d="M120.29 65.2L124 65.2L124 68L119.8 68C119.48 68 119.17 67.89 118.93 67.69L118.13 67.06C114.11 63.84 109.69 61.17 104.98 59.11L92.67 54.22C92.65 54.22 92.64 54.21 92.62 54.21C91.48 53.71 90.14 54.15 89.53 55.24C88.91 56.32 89.22 57.69 90.23 58.42L100.97 65.43C101.28 65.63 101.5 65.96 101.57 66.32C102.13 68.61 103.14 70.77 104.53 72.67C107.47 76.6 111.62 78.33 116.86 77.81L117.14 80.59C116.42 80.66 115.74 80.7 115.08 80.7C108.44 80.7 104.45 77.28 102.22 74.26C100.85 72.36 99.8 70.24 99.12 68L75.52 68L75.52 65.2L95.5 65.2L88.68 60.75C88.67 60.74 88.66 60.73 88.64 60.72C87.48 59.91 86.7 58.66 86.48 57.26C86.25 55.86 86.61 54.43 87.46 53.29C88.91 51.36 91.5 50.67 93.72 51.63L106.03 56.51C106.05 56.52 106.06 56.52 106.08 56.53C111.02 58.69 115.67 61.5 119.88 64.87L120.29 65.2ZM59.35 56.8L52.57 90.67L49.83 90.13L56.79 55.29C56.73 53.79 55.5 52.6 54 52.6L40 52.6L40 49.8L54 49.8C56.55 49.8 58.78 51.53 59.42 54L67.92 54C67.2 47.63 61.81 42.81 55.4 42.8L40 42.8L40 40L55.4 40C63.84 40.01 70.7 46.81 70.8 55.25L76.9 84.51L74.16 85.09L68.26 56.8L59.35 56.8ZM109.09 87.6L124 87.6L124 90.4L108.6 90.4C107.92 90.4 107.43 89.86 106.93 89.46C102.91 86.24 98.49 83.57 93.77 81.5L84.33 77.64C84.32 77.63 84.31 77.63 84.3 77.62C83.15 77.13 81.81 77.57 81.2 78.66C80.59 79.75 80.9 81.13 81.92 81.85C81.94 81.86 81.96 81.87 81.97 81.88L89.85 87.89C90.33 88.25 90.52 88.88 90.33 89.45C90.13 90.02 89.6 90.4 89 90.4L59.6 90.4C58.05 90.4 56.8 91.65 56.8 93.2C56.8 94.75 58.05 96 59.6 96L80.6 96L80.6 98.8L58.2 98.8C56.65 98.8 55.4 100.05 55.4 101.6C55.4 103.15 56.65 104.4 58.2 104.4L80.6 104.4L80.6 107.2L58.2 107.2C55.68 107.2 53.48 105.52 52.8 103.1C52.13 100.67 53.16 98.1 55.32 96.8C53.91 95.14 53.6 92.81 54.52 90.83C55.44 88.86 57.42 87.6 59.6 87.6L84.85 87.6L80.29 84.13C79.14 83.31 78.37 82.06 78.15 80.66C77.93 79.27 78.29 77.84 79.13 76.71C79.22 76.6 79.3 76.5 79.39 76.4L78.21 76.4L78.21 73.6L91.8 73.6L91.8 76.4L88.7 76.4L94.85 78.92C94.86 78.92 94.87 78.93 94.88 78.93C99.82 81.1 104.47 83.9 108.68 87.27L109.09 87.6ZM109.37 115.75C109.57 115.65 109.78 115.6 110 115.6L124 115.6L124 118.4L110.33 118.4C100.49 123.27 93.89 124 90.81 124L65.2 124C63.19 124 61.34 122.93 60.34 121.18C59.34 119.44 59.35 117.3 60.37 115.56C57.54 115.24 55.4 112.85 55.4 110L58.2 110C58.2 111.55 59.45 112.8 61 112.8L80.6 112.8L80.6 115.6L65.2 115.6C63.65 115.6 62.4 116.85 62.4 118.4C62.4 119.95 63.65 121.2 65.2 121.2L90.81 121.2C97.72 121.2 106.1 117.39 109.37 115.75L109.37 115.75ZM59.78 81.05L60.83 62.15L63.62 62.3L62.57 81.2L59.78 81.05ZM68.17 69.46L69.4 84.69L66.6 84.91L65.38 69.69L68.17 69.46ZM45.6 100.2C43.28 100.2 41.4 98.32 41.4 96C41.4 93.68 43.28 91.8 45.6 91.8C47.92 91.8 49.8 93.68 49.8 96C49.8 98.32 47.92 100.2 45.6 100.2ZM47 96C47 95.23 46.37 94.6 45.6 94.6C44.83 94.6 44.2 95.23 44.2 96C44.2 96.77 44.83 97.4 45.6 97.4C46.37 97.4 47 96.77 47 96ZM73.6 58.2C73.6 55.88 75.48 54 77.8 54C80.12 54 82 55.88 82 58.2C82 60.52 80.12 62.4 77.8 62.4C75.48 62.4 73.6 60.52 73.6 58.2ZM77.8 59.6C78.57 59.6 79.2 58.97 79.2 58.2C79.2 57.43 78.57 56.8 77.8 56.8C77.03 56.8 76.4 57.43 76.4 58.2C76.4 58.97 77.03 59.6 77.8 59.6ZM91.8 110C89.48 110 87.6 108.12 87.6 105.8C87.6 103.48 89.48 101.6 91.8 101.6C94.12 101.6 96 103.48 96 105.8C96 108.12 94.12 110 91.8 110ZM91.8 107.2C92.57 107.2 93.2 106.57 93.2 105.8C93.2 105.03 92.57 104.4 91.8 104.4C91.03 104.4 90.4 105.03 90.4 105.8C90.4 106.57 91.03 107.2 91.8 107.2Z" />
						</g>
					</g>
				</g>
			</g>
		</g>
	</g>
</svg>