<svg xmlns="http://www.w3.org/2000/svg" viewBox="0 0 189 164" width="189" height="164">
	<defs>
		<clipPath clipPathUnits="userSpaceOnUse" id="cp1">
			<path d="M-798 -2742L1122 -2742L1122 3277L-798 3277Z" />
		</clipPath>
	</defs>
	<style>
		tspan { white-space:pre }
		.shp0 { fill: #ffe8f2 } 
		.shp1 { fill: #ffa700 } 
		.shp2 { fill: #ffd78a } 
		.shp3 { fill: #fbcf7d } 
		.shp4 { fill: #ffddce } 
		.shp5 { fill: #ffd0c7 } 
		.shp6 { fill: #e6cfcb } 
		.shp7 { fill: #ffb6a8 } 
		.shp8 { fill: #6bbef6 } 
		.shp9 { fill: #90d8f9 } 
		.shp10 { fill: #fe0470 } 
		.shp11 { fill: #dd636e } 
		.shp12 { fill: #ffcbbe } 
		.shp13 { fill: #26457d } 
		.shp14 { fill: #30579d } 
		.shp15 { fill: #000000 } 
	</style>
	<g id="CovidZone" clip-path="url(#cp1)">
		<g id="How can Prevention it">
			<g id="Detalis">
				<g id="2">
					<g id="Icon">
						<path id="Path 53" class="shp0" d="M91.01 1.94C138.01 16.94 221.01 68.94 176.01 86.94C131.01 104.94 127.01 173.94 91.01 161.94C55.01 149.94 -21.99 110.94 6.01 86.94C34.01 62.94 44.01 -13.06 91.01 1.94Z" />
						<g id="social-distancing">
							<g id="Group 35">
								<g id="Group 23">
									<path id="Path 209" class="shp1" d="M47.14 77L47.14 80.23L52.07 80.23L52.07 91.77L65.92 91.77L65.92 80.23L70.84 80.23L70.84 77C70.84 72.92 67.53 69.61 63.46 69.61L54.53 69.61C50.45 69.61 47.14 72.92 47.14 77L47.14 77Z" />
								</g>
								<g id="Group 26">
									<g id="Group 24">
										<path id="Path 210" class="shp2" d="M62.84 91.77L65.92 91.77L65.92 77.15L64.38 77.15C63.53 77.15 62.84 77.84 62.84 78.69L62.84 91.77Z" />
									</g>
									<g id="Group 25">
										<path id="Path 211" class="shp3" d="M63.46 69.61L60.38 69.61C64.46 69.61 67.76 72.92 67.76 77L67.76 80.23L70.84 80.23L70.84 77C70.84 72.92 67.53 69.61 63.46 69.61L63.46 69.61Z" />
									</g>
								</g>
								<g id="Group 27">
									<path id="Path 212" class="shp4" d="M70.84 80.23L65.92 80.23L65.92 91.77C65.92 93.13 67.02 94.23 68.38 94.23C69.74 94.23 70.84 93.13 70.84 91.77L70.84 80.23Z" />
								</g>
								<g id="Group 28">
									<path id="Path 213" class="shp4" d="M52.07 80.23L47.14 80.23L47.14 91.77C47.14 93.13 48.24 94.23 49.6 94.23C50.96 94.23 52.07 93.13 52.07 91.77L52.07 80.23Z" />
								</g>
								<g id="Group 29">
									<path id="Ellipse 26" class="shp5" d="M58.99 69.61C55.59 69.61 52.84 66.86 52.84 63.46C52.84 60.05 55.59 57.3 58.99 57.3C62.4 57.3 65.15 60.05 65.15 63.46C65.15 66.86 62.4 69.61 58.99 69.61Z" />
								</g>
								<g id="Group 30">
									<path id="Path 214" class="shp6" d="M61.79 57.97C62.21 58.81 62.46 59.76 62.46 60.77C62.46 64.17 59.7 66.92 56.3 66.92C55.3 66.92 54.35 66.68 53.51 66.25C54.53 68.24 56.6 69.61 58.99 69.61C62.39 69.61 65.15 66.86 65.15 63.46C65.15 61.06 63.78 58.99 61.79 57.97Z" />
								</g>
								<g id="Group 31">
									<path id="Path 215" class="shp5" d="M52.07 91.77L65.92 91.77L65.92 113.93L52.07 113.93L52.07 91.77Z" />
								</g>
								<g id="Group 32">
									<path id="Path 216" class="shp7" d="M62.84 91.77L65.92 91.77L65.92 113.93L62.84 113.93L62.84 91.77Z" />
								</g>
								<g id="Group 33">
									<path id="Path 217" class="shp8" d="M65.92 118.86L58.99 118.86L58.99 113.93L65.92 113.93C66.77 113.93 67.46 114.62 67.46 115.47L67.46 117.32C67.46 118.17 66.77 118.86 65.92 118.86Z" />
								</g>
								<g id="Group 34">
									<path id="Path 218" class="shp9" d="M52.07 118.86L58.99 118.86L58.99 113.93L52.07 113.93C51.22 113.93 50.53 114.62 50.53 115.47L50.53 117.32C50.53 118.17 51.22 118.86 52.07 118.86Z" />
								</g>
							</g>
							<g id="Group 48">
								<g id="Group 36">
									<path id="Path 219" class="shp10" d="M99.16 77L99.16 80.23L104.08 80.23L104.08 91.77L117.93 91.77L117.93 80.23L122.86 80.23L122.86 77C122.86 72.92 119.55 69.61 115.47 69.61L106.54 69.61C102.47 69.61 99.16 72.92 99.16 77Z" />
								</g>
								<g id="Group 39">
									<g id="Group 37">
										<path id="Path 220" class="shp11" d="M114.86 91.77L117.93 91.77L117.93 77.15L116.39 77.15C115.54 77.15 114.85 77.84 114.85 78.69L114.86 91.77Z" />
									</g>
									<g id="Group 38">
										<path id="Path 221" class="shp11" d="M115.47 69.61L112.39 69.61C116.47 69.61 119.78 72.92 119.78 77L119.78 80.23L122.86 80.23L122.86 77C122.86 72.92 119.55 69.61 115.47 69.61L115.47 69.61Z" />
									</g>
								</g>
								<g id="Group 40">
									<path id="Path 222" class="shp4" d="M122.86 80.23L117.93 80.23L117.93 91.77C117.93 93.13 119.04 94.23 120.4 94.23C121.75 94.23 122.86 93.13 122.86 91.77L122.86 80.23Z" />
								</g>
								<g id="Group 41">
									<path id="Path 223" class="shp4" d="M104.08 80.23L99.16 80.23L99.16 91.77C99.16 93.13 100.26 94.23 101.62 94.23C102.98 94.23 104.08 93.13 104.08 91.77L104.08 80.23Z" />
								</g>
								<g id="Group 42">
									<path id="Ellipse 27" class="shp4" d="M111.01 69.61C107.6 69.61 104.85 66.86 104.85 63.46C104.85 60.05 107.6 57.3 111.01 57.3C114.41 57.3 117.16 60.05 117.16 63.46C117.16 66.86 114.41 69.61 111.01 69.61Z" />
								</g>
								<g id="Group 43">
									<path id="Path 224" class="shp12" d="M113.8 57.97C114.23 58.81 114.47 59.76 114.47 60.77C114.47 64.17 111.72 66.92 108.32 66.92C107.31 66.92 106.36 66.68 105.52 66.25C106.54 68.24 108.61 69.61 111.01 69.61C114.41 69.61 117.16 66.86 117.16 63.46C117.16 61.06 115.8 58.99 113.8 57.97Z" />
								</g>
								<g id="Group 44">
									<path id="Path 225" class="shp9" d="M104.08 91.77L117.93 91.77L117.93 113.93L104.08 113.93L104.08 91.77Z" />
								</g>
								<g id="Group 45">
									<path id="Path 226" class="shp8" d="M114.85 91.77L117.93 91.77L117.93 113.93L114.85 113.93L114.85 91.77Z" />
								</g>
								<g id="Group 46">
									<path id="Path 227" class="shp13" d="M117.93 118.86L111.01 118.86L111.01 113.93L117.93 113.93C118.78 113.93 119.47 114.62 119.47 115.47L119.47 117.32C119.47 118.17 118.78 118.86 117.93 118.86Z" />
								</g>
								<g id="Group 47">
									<path id="Path 228" class="shp14" d="M104.08 118.86L111.01 118.86L111.01 113.93L104.08 113.93C103.23 113.93 102.54 114.62 102.54 115.47L102.54 117.32C102.54 118.17 103.23 118.86 104.08 118.86Z" />
								</g>
							</g>
							<g id="Group 50">
								<g id="Group 49">
									<path id="Path 229" fill-rule="evenodd" class="shp15" d="M64.25 68.51C68.58 68.91 71.98 72.56 71.98 77L71.98 91.77C71.98 93.76 70.37 95.38 68.38 95.38C67.91 95.38 67.47 95.29 67.06 95.13L67.06 100.19C67.06 100.82 66.55 101.33 65.92 101.33C65.29 101.33 64.77 100.82 64.77 100.19L64.77 92.91L53.21 92.91L53.21 112.79L57.85 112.79L57.85 98.15L56.99 98.15C56.36 98.15 55.85 97.64 55.85 97C55.85 96.37 56.36 95.86 56.99 95.86L60.99 95.86C61.62 95.86 62.14 96.37 62.14 97C62.14 97.64 61.62 98.15 60.99 98.15L60.13 98.15L60.13 112.79L64.78 112.79L64.78 105.52C64.78 104.89 65.29 104.38 65.92 104.38C66.55 104.38 67.06 104.89 67.06 105.52L67.06 113.05C67.97 113.48 68.6 114.4 68.6 115.47L68.6 117.32C68.6 118.8 67.4 120 65.92 120L52.07 120C50.59 120 49.39 118.8 49.39 117.32L49.39 115.47C49.39 114.4 50.02 113.48 50.93 113.05L50.93 95.13C50.52 95.29 50.07 95.38 49.6 95.38C47.62 95.38 46 93.76 46 91.77L46 77C46 72.56 49.4 68.91 53.73 68.51C52.47 67.2 51.69 65.42 51.69 63.46C51.69 59.43 54.97 56.16 58.99 56.16C63.02 56.16 66.29 59.43 66.29 63.46C66.29 65.42 65.51 67.2 64.25 68.51ZM53.98 63.46C53.98 66.22 56.23 68.47 58.99 68.47C61.76 68.47 64.01 66.22 64.01 63.46C64.01 60.69 61.76 58.44 58.99 58.44C56.23 58.44 53.98 60.69 53.98 63.46ZM50.92 91.77L50.92 81.37L48.29 81.37L48.29 91.77C48.29 92.5 48.88 93.09 49.6 93.09C50.33 93.09 50.92 92.5 50.92 91.77ZM51.67 117.32C51.67 117.54 51.85 117.71 52.07 117.71L57.85 117.71L57.85 115.07L52.07 115.07C51.85 115.07 51.67 115.25 51.67 115.47L51.67 117.32ZM66.31 115.47C66.31 115.25 66.14 115.08 65.92 115.08L60.13 115.08L60.13 117.71L65.92 117.71C66.14 117.71 66.31 117.54 66.31 117.32L66.31 115.47ZM69.7 91.77L69.7 81.37L67.06 81.37C67.06 81.37 67.06 91.77 67.06 91.77C67.06 92.5 67.65 93.09 68.38 93.09C69.11 93.09 69.7 92.5 69.7 91.77ZM69.7 77C69.7 73.56 66.9 70.75 63.46 70.75L54.53 70.75C51.09 70.75 48.29 73.56 48.29 77L48.29 79.09L50.92 79.09L50.92 77.15C50.92 76.52 51.44 76.01 52.07 76.01C52.7 76.01 53.21 76.52 53.21 77.15L53.21 90.63L64.77 90.63L64.77 77.15C64.77 76.52 65.29 76.01 65.92 76.01C66.55 76.01 67.06 76.52 67.06 77.15L67.06 79.09L69.7 79.09L69.7 77Z" />
									<path id="Path 230" fill-rule="evenodd" class="shp15" d="M116.27 68.51C120.6 68.91 124 72.56 124 77L124 91.77C124 93.76 122.38 95.38 120.4 95.38C119.93 95.38 119.48 95.29 119.07 95.13L119.07 100.19C119.07 100.82 118.56 101.33 117.93 101.33C117.3 101.33 116.79 100.82 116.79 100.19L116.79 92.91L105.23 92.91L105.23 112.79L109.87 112.79L109.87 98.15L109.01 98.15C108.38 98.15 107.86 97.64 107.86 97C107.86 96.37 108.38 95.86 109.01 95.86L113.01 95.86C113.64 95.86 114.15 96.37 114.15 97C114.15 97.64 113.64 98.15 113.01 98.15L112.15 98.15L112.15 112.79L116.79 112.79L116.79 105.52C116.79 104.89 117.3 104.38 117.93 104.38C118.56 104.38 119.07 104.89 119.07 105.52L119.07 113.05C119.98 113.48 120.61 114.4 120.61 115.47L120.61 117.32C120.61 118.8 119.41 120 117.93 120L104.08 120C102.6 120 101.4 118.8 101.4 117.32L101.4 115.47C101.4 114.4 102.03 113.48 102.94 113.05L102.94 95.13C102.53 95.29 102.08 95.38 101.62 95.38C99.63 95.38 98.01 93.76 98.01 91.77L98.01 87.92C98.01 87.29 98.53 86.78 99.16 86.78C99.79 86.78 100.3 87.29 100.3 87.92L100.3 91.77C100.3 92.5 100.89 93.09 101.62 93.09C101.97 93.09 102.3 92.95 102.55 92.71C102.8 92.46 102.94 92.13 102.94 91.77L102.94 81.37L100.3 81.37L100.3 82.59C100.3 83.22 99.79 83.73 99.16 83.73C98.53 83.73 98.01 83.22 98.01 82.59L98.02 77C98.02 72.56 101.42 68.91 105.75 68.51C104.49 67.2 103.71 65.42 103.71 63.46C103.71 59.43 106.98 56.16 111.01 56.16C115.03 56.16 118.31 59.43 118.31 63.46C118.31 65.42 117.53 67.2 116.27 68.51ZM105.99 63.46C105.99 66.22 108.24 68.47 111.01 68.47C113.77 68.47 116.02 66.22 116.02 63.46C116.02 60.69 113.77 58.44 111.01 58.44C108.24 58.44 105.99 60.69 105.99 63.46ZM102.94 79.09L102.94 77.15C102.94 76.52 103.45 76.01 104.08 76.01C104.71 76.01 105.23 76.52 105.23 77.15L105.23 90.63L116.79 90.63L116.79 77.15C116.79 76.52 117.3 76.01 117.93 76.01C118.56 76.01 119.08 76.52 119.08 77.15L119.08 79.09L121.71 79.09L121.71 77C121.71 73.56 118.91 70.75 115.47 70.75L106.54 70.75C103.1 70.75 100.3 73.56 100.3 77L100.3 79.09L102.94 79.09ZM104.08 117.71L109.87 117.71L109.87 115.07L104.08 115.07C103.86 115.07 103.69 115.25 103.69 115.47L103.69 117.32C103.69 117.54 103.86 117.71 104.08 117.71ZM118.33 115.47C118.33 115.25 118.15 115.08 117.93 115.08L112.15 115.08L112.15 117.71L117.93 117.71C118.15 117.71 118.33 117.54 118.33 117.32L118.33 115.47ZM121.71 91.77L121.71 81.37L119.08 81.37L119.08 91.77C119.08 92.5 119.67 93.09 120.4 93.09C121.12 93.09 121.71 92.5 121.71 91.77Z" />
									<path id="Path 231" class="shp15" d="M100.74 62.65L96.89 58.8C96.44 58.35 95.72 58.35 95.27 58.8C94.83 59.25 94.83 59.97 95.27 60.42L97.17 62.31L72.83 62.31L74.73 60.42C75.17 59.97 75.17 59.25 74.73 58.8C74.28 58.35 73.56 58.35 73.11 58.8L69.26 62.65C68.82 63.09 68.82 63.82 69.26 64.26L73.11 68.11C73.33 68.33 73.63 68.45 73.92 68.45C74.21 68.45 74.5 68.33 74.73 68.11C75.17 67.67 75.17 66.94 74.73 66.5L72.83 64.6L97.17 64.6L95.27 66.5C94.83 66.94 94.83 67.67 95.27 68.11C95.5 68.33 95.79 68.45 96.08 68.45C96.37 68.45 96.66 68.33 96.89 68.11L100.74 64.26C101.18 63.82 101.18 63.09 100.74 62.65Z" />
									<path id="Path 232" class="shp15" d="M84.74 54.04C85.36 54.15 85.95 53.74 86.06 53.12L87.1 47.35L88.82 53.16C88.82 53.18 88.83 53.19 88.83 53.2C89.02 53.76 89.54 54.13 90.13 54.13L90.13 54.13C90.72 54.13 91.24 53.75 91.42 53.19C91.43 53.18 91.43 53.16 91.44 53.15L93.09 47.34L94.2 53.13C94.32 53.75 94.92 54.16 95.54 54.04C96.15 53.92 96.56 53.32 96.44 52.7L94.61 43.09C94.48 42.49 93.96 42.04 93.35 42C92.73 41.97 92.16 42.35 91.97 42.94C91.97 42.96 91.96 42.97 91.96 42.98L90.11 49.47L88.19 42.97C88.19 42.96 88.19 42.94 88.18 42.93C87.99 42.34 87.41 41.96 86.8 42C86.18 42.04 85.66 42.5 85.55 43.12L83.81 52.71C83.7 53.33 84.11 53.93 84.74 54.04Z" />
									<path id="Path 233" class="shp15" d="M74.46 46.26C75.08 46.38 75.68 45.97 75.8 45.36C75.92 44.74 76.47 44.29 77.1 44.29C77.82 44.29 78.4 44.85 78.43 45.55L78.4 45.78C78.28 46.25 78 46.81 77.57 47.43C76.04 49.62 75.12 50.81 74.63 51.45C74.02 52.26 73.74 52.63 73.93 53.26C74.04 53.63 74.33 53.91 74.7 54.04C74.85 54.09 75 54.14 76.89 54.14C77.63 54.14 78.63 54.13 80 54.11C80.63 54.1 81.14 53.59 81.13 52.95C81.12 52.32 80.6 51.81 79.97 51.83C79.03 51.84 78.04 51.85 77.2 51.85C77.73 51.14 78.46 50.14 79.44 48.74C80.06 47.85 80.46 47.01 80.64 46.25C80.7 45.98 80.72 45.66 80.72 45.61C80.72 43.62 79.1 42 77.1 42C75.38 42 73.89 43.23 73.56 44.92C73.44 45.53 73.84 46.13 74.46 46.26L74.46 46.26Z" />
								</g>
							</g>
						</g>
					</g>
				</g>
			</g>
		</g>
	</g>
</svg>