<svg xmlns="http://www.w3.org/2000/svg" viewBox="0 0 189 164" width="189" height="164">
	<defs>
		<clipPath clipPathUnits="userSpaceOnUse" id="cp1">
			<path d="M-260 -2071L1660 -2071L1660 3948L-260 3948Z" />
		</clipPath>
	</defs>
	<style>
		tspan { white-space:pre }
		.shp0 { fill: #ffe8f2 } 
		.shp1 { fill: #fe0470 } 
		.shp2 { fill: #ff90d1 } 
		.shp3 { fill: #ffd0c7 } 
		.shp4 { fill: #f7c4a8 } 
		.shp5 { fill: #ffa700 } 
		.shp6 { fill: #ffce6e } 
		.shp7 { fill: #ebf2f8 } 
		.shp8 { fill: #d6e3ed } 
		.shp9 { fill: #000000 } 
	</style>
	<g id="CovidZone" clip-path="url(#cp1)">
		<g id="How can contagious it">
			<g id="Detalis">
				<g id="4">
					<g id="Icon">
						<path id="Path 53" class="shp0" d="M91.01 1.94C138.01 16.94 221.01 68.94 176.01 86.94C131.01 104.94 127.01 173.94 91.01 161.94C55.01 149.94 -21.99 110.94 6.01 86.94C34.01 62.94 44.01 -13.06 91.01 1.94Z" />
						<g id="infected">
							<g id="Group 12">
								<g id="Group 8">
									<path id="Path 90" class="shp1" d="M80.41 77.03C80.41 63.35 80 49.06 76.64 49.67C65.28 51.74 50.47 68.34 49.24 102.31C49.16 104.53 51.3 106.16 53.42 105.5C56.56 104.52 60.94 103.27 64.78 102.58C75.86 100.6 80.41 98.26 80.41 77.03L80.41 77.03Z" />
									<path id="Path 91" class="shp1" d="M94.59 77.03C94.59 63.35 95 49.06 98.36 49.67C109.72 51.74 124.53 68.34 125.76 102.31C125.84 104.53 123.7 106.16 121.58 105.5C118.44 104.52 114.06 103.27 110.22 102.58C99.14 100.6 94.59 98.26 94.59 77.03L94.59 77.03Z" />
									<path id="Path 92" class="shp2" d="M64.78 99.81C60.94 100.49 56.56 101.74 53.42 102.72C51.59 103.29 49.74 102.15 49.32 100.4C49.29 101.03 49.26 101.67 49.24 102.31C49.16 104.53 51.3 106.16 53.42 105.5C56.56 104.52 60.94 103.27 64.78 102.58C75.86 100.6 80.41 98.26 80.41 77.03C80.41 76.39 80.41 75.75 80.41 75.12C80.29 95.55 75.71 97.85 64.78 99.81Z" />
									<path id="Path 93" class="shp2" d="M125.68 100.4C125.26 102.15 123.41 103.29 121.58 102.72C118.44 101.74 114.06 100.49 110.22 99.81C99.29 97.85 94.71 95.55 94.59 75.12C94.59 75.75 94.59 76.39 94.59 77.03C94.59 98.26 99.14 100.6 110.22 102.58C114.06 103.27 118.44 104.52 121.58 105.5C123.7 106.16 125.84 104.53 125.76 102.31C125.74 101.67 125.71 101.03 125.68 100.4L125.68 100.4Z" />
									<path id="Path 94" class="shp3" d="M94.87 62.72C92.88 60.96 91.08 58.79 91.08 56.69L91.08 39.81C91.08 37.83 89.48 36.23 87.5 36.23C85.52 36.23 83.92 37.83 83.92 39.81L83.92 56.69C83.92 58.79 82.12 60.96 80.13 62.72C80.26 65.09 80.33 67.66 80.37 70.3C82.65 68.77 85.37 66.54 87.5 63.62C89.63 66.54 92.35 68.77 94.63 70.3C94.67 67.66 94.74 65.09 94.87 62.72L94.87 62.72Z" />
									<path id="Path 95" class="shp4" d="M86.9 60.24C85.08 62.48 82.36 64.97 80.29 66.57C80.32 67.78 80.35 69.03 80.37 70.3C82.65 68.77 85.37 66.54 87.5 63.62C89.63 66.54 92.35 68.77 94.63 70.3C94.65 69.03 94.68 67.78 94.71 66.57C92.64 64.97 89.92 62.48 88.1 60.24C87.79 59.85 87.21 59.85 86.9 60.24Z" />
								</g>
								<g id="Group 9">
									<path id="Ellipse 17" class="shp5" d="M65.48 92.73C63.1 93.11 60.86 91.5 60.47 89.12C60.09 86.74 61.7 84.5 64.08 84.11C66.46 83.73 68.7 85.34 69.09 87.72C69.47 90.1 67.86 92.34 65.48 92.73Z" />
								</g>
								<g id="Group 10">
									<path id="Ellipse 18" class="shp5" d="M106.83 77.51C104.41 77.51 102.46 75.56 102.46 73.15C102.46 70.74 104.41 68.78 106.83 68.78C109.24 68.78 111.19 70.74 111.19 73.15C111.19 75.56 109.24 77.51 106.83 77.51Z" />
								</g>
								<path id="Path 96" class="shp6" d="M64.79 90.01C62.87 90.01 61.24 88.76 60.66 87.03C60.51 87.47 60.43 87.94 60.43 88.42C60.43 90.83 62.38 92.79 64.79 92.79C67.2 92.79 69.16 90.83 69.16 88.42C69.16 87.94 69.08 87.47 68.93 87.03C68.35 88.76 66.72 90.01 64.79 90.01Z" />
								<path id="Path 97" class="shp6" d="M106.83 74.73C104.9 74.73 103.27 73.49 102.69 71.76C102.54 72.2 102.46 72.66 102.46 73.15C102.46 75.56 104.42 77.51 106.83 77.51C109.24 77.51 111.19 75.56 111.19 73.15C111.19 72.66 111.11 72.2 110.96 71.76C110.38 73.49 108.75 74.73 106.83 74.73Z" />
								<g id="Group 11">
									<path id="Ellipse 19" class="shp7" d="M72.12 65.1C71.03 66.19 69.26 66.19 68.17 65.1C67.08 64 67.08 62.24 68.17 61.15C69.26 60.05 71.03 60.05 72.12 61.15C73.21 62.24 73.21 64 72.12 65.1Z" />
									<path id="Ellipse 20" class="shp7" d="M106.74 95.88C105.29 96.4 103.69 95.65 103.16 94.2C102.64 92.75 103.39 91.15 104.84 90.63C106.29 90.1 107.89 90.85 108.41 92.3C108.94 93.75 108.19 95.35 106.74 95.88Z" />
									<path id="Ellipse 21" class="shp7" d="M73.34 76.83C72.25 77.92 70.48 77.92 69.39 76.83C68.3 75.74 68.3 73.97 69.39 72.88C70.48 71.79 72.25 71.79 73.34 72.88C74.43 73.97 74.43 75.74 73.34 76.83Z" />
									<path id="Ellipse 22" class="shp7" d="M117.45 87.61C116.36 88.7 114.59 88.7 113.5 87.61C112.41 86.51 112.41 84.75 113.5 83.66C114.59 82.56 116.36 82.56 117.45 83.66C118.54 84.75 118.54 86.51 117.45 87.61Z" />
								</g>
								<path id="Path 98" class="shp8" d="M70.15 63.14C69.11 63.14 68.21 62.57 67.73 61.73C67.49 62.14 67.36 62.61 67.36 63.12C67.36 64.66 68.61 65.91 70.15 65.91C71.69 65.91 72.94 64.66 72.94 63.12C72.94 62.61 72.81 62.14 72.57 61.73C72.09 62.57 71.19 63.14 70.15 63.14Z" />
								<path id="Path 99" class="shp8" d="M105.83 93.26C104.79 93.26 103.89 92.69 103.41 91.86C103.17 92.26 103.04 92.74 103.04 93.24C103.04 94.79 104.29 96.04 105.83 96.04C107.37 96.04 108.62 94.79 108.62 93.24C108.62 92.74 108.49 92.26 108.25 91.86C107.77 92.69 106.87 93.26 105.83 93.26Z" />
								<path id="Path 100" class="shp8" d="M71.37 74.87C70.34 74.87 69.44 74.31 68.95 73.47C68.72 73.88 68.58 74.35 68.58 74.86C68.58 76.4 69.83 77.65 71.37 77.65C72.92 77.65 74.17 76.4 74.17 74.86C74.17 74.35 74.03 73.88 73.8 73.47C73.31 74.31 72.41 74.87 71.37 74.87Z" />
								<path id="Path 101" class="shp8" d="M115.49 85.65C114.45 85.65 113.55 85.08 113.06 84.24C112.83 84.65 112.69 85.12 112.69 85.63C112.69 87.17 113.94 88.42 115.49 88.42C117.03 88.42 118.28 87.17 118.28 85.63C118.28 85.12 118.14 84.65 117.91 84.24C117.43 85.08 116.52 85.65 115.49 85.65Z" />
							</g>
							<g id="Group 13">
								<path id="Path 102" class="shp9" d="M127 102.33C126.43 86.77 122.94 73.32 116.9 63.41C111.85 55.13 105.18 49.69 98.59 48.49C97.91 48.37 97.25 48.55 96.69 49.02C95.24 50.22 94.36 53.5 93.88 60.05C92.81 58.79 92.25 57.64 92.25 56.66L92.25 49.07C92.25 48.43 91.73 47.91 91.09 47.91C90.45 47.91 89.93 48.43 89.93 49.07L89.93 56.66C89.93 58.68 91.2 60.87 93.7 63.19C93.63 64.68 93.57 66.3 93.53 68.06C91.48 66.49 89.77 64.76 88.44 62.93C88.22 62.63 87.87 62.45 87.5 62.45C87.13 62.45 86.78 62.63 86.56 62.93C85.23 64.76 83.52 66.49 81.47 68.06C81.43 66.3 81.38 64.68 81.31 63.19C83.8 60.87 85.07 58.68 85.07 56.66L85.07 39.75C85.07 38.41 86.16 37.32 87.5 37.32C88.84 37.32 89.93 38.41 89.93 39.75L89.93 44.43C89.93 45.07 90.45 45.59 91.09 45.59C91.73 45.59 92.25 45.07 92.25 44.43L92.25 39.75C92.25 37.13 90.12 35 87.5 35C84.88 35 82.75 37.13 82.75 39.75L82.75 56.66C82.75 57.64 82.2 58.79 81.12 60.05C80.64 53.5 79.76 50.22 78.32 49.02C77.75 48.55 77.09 48.37 76.41 48.49C72.87 49.13 69.21 51.05 65.81 54.03C62.1 57.28 58.84 61.62 56.13 66.93C55.84 67.5 56.07 68.2 56.64 68.49C57.21 68.78 57.91 68.55 58.2 67.98C63.06 58.45 70.01 52.02 76.8 50.78C76.97 50.88 78.09 51.84 78.72 59.15C79.18 64.54 79.24 71.54 79.24 77.04C79.24 87.27 78.21 93.06 75.79 96.4C73.62 99.4 70.3 100.48 64.54 101.51C60.58 102.21 56.08 103.5 53.01 104.46C52.36 104.67 51.67 104.54 51.13 104.13C50.59 103.72 50.3 103.09 50.32 102.41C50.74 90.9 52.74 80.73 56.26 72.2C56.51 71.6 56.23 70.93 55.63 70.68C55.04 70.44 54.36 70.72 54.12 71.31C50.49 80.1 48.43 90.54 48 102.33C47.95 103.75 48.59 105.11 49.72 105.97C50.5 106.56 51.44 106.87 52.39 106.87C52.83 106.87 53.27 106.81 53.7 106.68C56.71 105.74 61.11 104.47 64.94 103.79C70.2 102.85 74.79 101.75 77.67 97.76C80.4 93.99 81.56 87.8 81.56 77.04C81.56 74.84 81.55 72.8 81.52 70.9C83.88 69.26 85.88 67.45 87.5 65.5C89.12 67.45 91.12 69.26 93.48 70.9C93.45 72.8 93.44 74.84 93.44 77.04C93.44 87.8 94.6 93.99 97.33 97.76C100.21 101.75 104.8 102.85 110.06 103.79C110.64 103.89 111.25 104.01 111.89 104.15C112.51 104.28 113.13 103.88 113.26 103.26C113.4 102.63 113 102.01 112.37 101.88C111.71 101.74 111.07 101.61 110.46 101.51C104.7 100.48 101.38 99.4 99.21 96.4C96.79 93.06 95.76 87.27 95.76 77.04C95.76 71.54 95.82 64.54 96.28 59.15C96.91 51.84 98.03 50.88 98.2 50.78C104.13 51.86 110.22 56.91 114.92 64.62C120.76 74.18 124.13 87.25 124.68 102.41C124.7 103.09 124.41 103.72 123.87 104.13C123.33 104.54 122.64 104.66 121.99 104.46C120.24 103.92 118.53 103.42 116.92 102.99C116.31 102.82 115.67 103.19 115.5 103.8C115.34 104.42 115.7 105.06 116.32 105.23C117.9 105.65 119.58 106.14 121.31 106.68C121.73 106.81 122.17 106.87 122.61 106.87C123.56 106.87 124.5 106.56 125.28 105.97C126.41 105.11 127.05 103.75 127 102.33L127 102.33Z" />
								<path id="Path 103" fill-rule="evenodd" class="shp9" d="M59.34 87.3C59.48 86.63 59.75 86.01 60.11 85.46L59.43 84.78C58.97 84.33 58.97 83.59 59.43 83.14C59.88 82.69 60.61 82.69 61.07 83.14L61.75 83.82C62.3 83.46 62.92 83.19 63.59 83.05L63.59 82.09C63.59 81.45 64.11 80.93 64.75 80.93C65.39 80.93 65.91 81.45 65.91 82.09L65.91 83.05C66.57 83.19 67.2 83.46 67.75 83.82L68.43 83.14C68.88 82.69 69.62 82.69 70.07 83.14C70.52 83.59 70.52 84.33 70.07 84.78L69.39 85.46C69.75 86.01 70.01 86.63 70.16 87.3L71.11 87.3C71.75 87.3 72.27 87.82 72.27 88.46C72.27 89.1 71.75 89.62 71.11 89.62L70.16 89.62C70.01 90.29 69.75 90.91 69.39 91.46L70.07 92.14C70.52 92.59 70.52 93.33 70.07 93.78C69.84 94.01 69.55 94.12 69.25 94.12C68.95 94.12 68.66 94.01 68.43 93.78L67.75 93.1C67.2 93.46 66.57 93.72 65.91 93.87L65.91 94.82C65.91 95.46 65.39 95.98 64.75 95.98C64.11 95.98 63.59 95.46 63.59 94.82L63.59 93.87C62.92 93.72 62.3 93.46 61.75 93.1L61.07 93.78C60.84 94.01 60.54 94.12 60.25 94.12C59.95 94.12 59.65 94.01 59.43 93.78C58.97 93.33 58.97 92.59 59.43 92.14L60.11 91.46C59.75 90.91 59.48 90.29 59.34 89.62L58.38 89.62C57.74 89.62 57.22 89.1 57.22 88.46C57.22 87.82 57.74 87.3 58.38 87.3L59.34 87.3ZM61.53 88.46C61.53 90.23 62.98 91.67 64.75 91.67C66.52 91.67 67.96 90.23 67.96 88.46C67.96 86.69 66.52 85.25 64.75 85.25C62.98 85.25 61.53 86.69 61.53 88.46Z" />
								<path id="Path 104" fill-rule="evenodd" class="shp9" d="M109.87 77.8C109.31 78.16 108.69 78.42 108.02 78.56L108.02 79.52C108.02 80.16 107.51 80.68 106.86 80.68C106.22 80.68 105.7 80.16 105.7 79.52L105.7 78.56C105.04 78.42 104.42 78.16 103.86 77.8L103.18 78.48C102.96 78.7 102.66 78.81 102.36 78.81C102.07 78.81 101.77 78.7 101.54 78.48C101.09 78.02 101.09 77.29 101.54 76.84L102.22 76.16C101.86 75.6 101.6 74.98 101.46 74.31L100.5 74.31C99.86 74.31 99.34 73.79 99.34 73.15C99.34 72.51 99.86 71.99 100.5 71.99L101.46 71.99C101.6 71.33 101.86 70.71 102.22 70.15L101.54 69.47C101.09 69.02 101.09 68.29 101.54 67.83C102 67.38 102.73 67.38 103.18 67.83L103.86 68.51C104.42 68.15 105.04 67.89 105.7 67.75L105.7 66.79C105.7 66.15 106.22 65.63 106.86 65.63C107.5 65.63 108.02 66.15 108.02 66.79L108.02 67.75C108.69 67.89 109.31 68.15 109.87 68.51L110.55 67.83C111 67.38 111.73 67.38 112.19 67.83C112.64 68.29 112.64 69.02 112.19 69.47L111.51 70.15C111.87 70.71 112.13 71.33 112.27 71.99L113.23 71.99C113.87 71.99 114.39 72.51 114.39 73.15C114.39 73.79 113.87 74.31 113.23 74.31L112.27 74.31C112.13 74.98 111.87 75.6 111.51 76.16L112.19 76.84C112.64 77.29 112.64 78.02 112.19 78.48C111.96 78.7 111.66 78.81 111.37 78.81C111.07 78.81 110.77 78.7 110.55 78.48L109.87 77.8ZM110.08 73.15C110.08 71.38 108.64 69.94 106.86 69.94C105.09 69.94 103.65 71.38 103.65 73.15C103.65 74.93 105.09 76.37 106.86 76.37C108.64 76.37 110.08 74.93 110.08 73.15Z" />
								<path id="Path 105" fill-rule="evenodd" class="shp9" d="M74.08 63.11C74.08 65.29 72.3 67.07 70.12 67.07C67.93 67.07 66.16 65.29 66.16 63.11C66.16 60.92 67.93 59.15 70.12 59.15C72.3 59.15 74.08 60.92 74.08 63.11ZM71.76 63.11C71.76 62.2 71.02 61.47 70.12 61.47C69.21 61.47 68.48 62.2 68.48 63.11C68.48 64.01 69.21 64.75 70.12 64.75C71.02 64.75 71.76 64.01 71.76 63.11Z" />
								<path id="Path 106" fill-rule="evenodd" class="shp9" d="M105.87 89.33C108.05 89.33 109.82 91.11 109.82 93.29C109.82 95.47 108.05 97.25 105.87 97.25C103.68 97.25 101.91 95.47 101.91 93.29C101.91 91.11 103.68 89.33 105.87 89.33ZM105.87 91.65C104.96 91.65 104.23 92.39 104.23 93.29C104.23 94.19 104.96 94.93 105.87 94.93C106.77 94.93 107.51 94.19 107.51 93.29C107.51 92.39 106.77 91.65 105.87 91.65Z" />
								<path id="Path 107" fill-rule="evenodd" class="shp9" d="M71.34 70.91C73.53 70.91 75.3 72.68 75.3 74.87C75.3 77.05 73.53 78.82 71.34 78.82C69.16 78.82 67.38 77.05 67.38 74.87C67.38 72.68 69.16 70.91 71.34 70.91ZM71.34 73.23C70.44 73.23 69.7 73.96 69.7 74.87C69.7 75.77 70.44 76.51 71.34 76.51C72.25 76.51 72.98 75.77 72.98 74.87C72.98 73.96 72.25 73.23 71.34 73.23Z" />
								<path id="Path 108" fill-rule="evenodd" class="shp9" d="M111.58 85.66C111.58 83.48 113.36 81.7 115.54 81.7C117.72 81.7 119.5 83.48 119.5 85.66C119.5 87.84 117.72 89.62 115.54 89.62C113.36 89.62 111.58 87.84 111.58 85.66ZM113.9 85.66C113.9 86.56 114.64 87.3 115.54 87.3C116.44 87.3 117.18 86.56 117.18 85.66C117.18 84.76 116.44 84.02 115.54 84.02C114.64 84.02 113.9 84.76 113.9 85.66Z" />
							</g>
						</g>
					</g>
				</g>
			</g>
		</g>
	</g>
</svg>