<svg xmlns="http://www.w3.org/2000/svg" viewBox="0 0 189 164" width="189" height="164">
	<defs>
		<clipPath clipPathUnits="userSpaceOnUse" id="cp1">
			<path d="M-260 -1700L1660 -1700L1660 4319L-260 4319Z" />
		</clipPath>
	</defs>
	<style>
		tspan { white-space:pre }
		.shp0 { fill: #ffe8f2 } 
		.shp1 { fill: #ffa700 } 
		.shp2 { fill: #ffd0c7 } 
		.shp3 { fill: #fe0470 } 
		.shp4 { fill: #000000 } 
	</style>
	<g id="CovidZone" clip-path="url(#cp1)">
		<g id="How can contagious it">
			<g id="Detalis">
				<g id="1">
					<g id="Icon">
						<path id="Path 53" class="shp0" d="M91 1.91C138 16.91 221 68.91 176 86.91C131 104.91 127 173.91 91 161.91C55 149.91 -22 110.91 6 86.91C34 62.91 44 -13.09 91 1.91Z" />
						<g id="XMLID_864_">
							<g id="XMLID_3186_">
								<path id="Path 54" class="shp1" d="M72.08 67.62L73.58 65.1C75.98 61.06 80.33 58.59 85.03 58.59C92.39 58.59 98.35 52.62 98.35 45.26L98.35 43.54L77.11 43.54C65.75 43.54 56.55 52.75 56.55 64.11C56.55 70.56 59.47 76.66 64.49 80.71L65.91 81.85L66.3 81.85C69.28 81.85 71.96 80.01 73.03 77.22L72.08 67.62Z" />
							</g>
							<g id="XMLID_259_">
								<path id="XMLID_3_" class="shp2" d="M98.01 75.74L93.83 70.04L94.1 68.69C94.91 64.55 94.24 60.27 92.22 56.57L92.06 56.58C90.02 57.85 87.61 58.59 85.03 58.59C80.33 58.59 75.98 61.06 73.58 65.1L72.08 67.62C69.8 67.62 67.95 69.77 67.95 72.42C67.95 75.07 69.8 77.22 72.08 77.22C71.36 79.61 69.31 81.36 66.84 81.72L65.91 81.85L65.91 96.12L82.14 96.76L82.14 88.35L90.26 88.35C93.11 88.35 95.43 86.04 95.43 83.19L95.43 78.11L96.81 78.11C98.03 78.11 98.73 76.72 98.01 75.74Z" />
							</g>
							<g id="XMLID_3184_">
								<path id="XMLID_637_" class="shp3" d="M77.47 82.65L82.14 88.35L90.26 88.35C93.11 88.35 95.43 86.04 95.43 83.18L95.43 78.11L96.81 78.11C98.03 78.11 98.73 76.72 98.01 75.74L93.83 70.04L83.79 70.04L77.47 82.65Z" />
							</g>
							<g id="XMLID_3182_">
								<path id="XMLID_613_" class="shp3" d="M72.93 94.15C63.88 94.15 56.54 101.49 56.54 110.54L56.54 119.46L104.3 119.46C99.27 108.81 90.56 100.35 79.77 95.65L79.48 95.52C77.41 94.62 75.18 94.15 72.93 94.15Z" />
							</g>
							<g id="XMLID_2545_">
								<path id="XMLID_594_" class="shp1" d="M124 67C120.68 67 118 64.54 118 61.5C118 58.46 120.68 56 124 56C127.32 56 130 58.46 130 61.5C130 64.54 127.32 67 124 67Z" />
							</g>
							<g id="XMLID_188_">
								<g id="XMLID_244_">
									<path id="XMLID_160_" class="shp1" d="M115.5 98C112.46 98 110 95.54 110 92.5C110 89.46 112.46 87 115.5 87C118.54 87 121 89.46 121 92.5C121 95.54 118.54 98 115.5 98Z" />
								</g>
								<g id="XMLID_660_">
									<path id="XMLID_700_" fill-rule="evenodd" class="shp4" d="M95.12 104.15C99.57 108.42 103.12 113.35 105.69 118.8C106.06 119.57 105.73 120.49 104.96 120.85C104.74 120.95 104.52 121 104.3 121C103.72 121 103.17 120.67 102.9 120.12C98.11 109.96 89.34 101.51 78.86 96.93C76.98 96.11 74.98 95.69 72.93 95.69C64.74 95.69 58.09 102.35 58.09 110.54L58.09 119.46C58.09 120.31 57.4 121 56.54 121C55.69 121 55 120.31 55 119.46L55 110.54C55 103.75 58.79 97.83 64.36 94.79L64.36 82.59L63.53 81.91C58.11 77.55 55 71.06 55 64.11C55 61.37 55.5 58.69 56.48 56.15C56.79 55.36 57.68 54.96 58.47 55.27C59.27 55.57 59.66 56.47 59.36 57.26C58.52 59.44 58.09 61.75 58.09 64.11C58.09 70.12 60.78 75.74 65.46 79.51L66.44 80.3C67.99 80.26 69.42 79.59 70.44 78.49C68.11 77.71 66.4 75.28 66.4 72.42C66.4 69.27 68.46 66.66 71.15 66.16L72.25 64.31C74.92 59.83 79.81 57.04 85.03 57.04C91.53 57.04 96.81 51.76 96.81 45.26L96.81 45.09L77.11 45.09C73.76 45.09 70.47 45.97 67.59 47.64C66.85 48.06 65.91 47.81 65.48 47.08C65.05 46.34 65.3 45.39 66.04 44.97C69.39 43.03 73.22 42 77.11 42L98.35 42C99.21 42 99.9 42.69 99.9 43.54L99.9 45.26C99.9 50.02 97.65 54.26 94.16 56.99C95.89 60.72 96.4 64.93 95.61 68.99L95.48 69.68L99.26 74.82C99.93 75.75 100.03 76.96 99.52 77.99C99.02 78.96 98.06 79.59 96.97 79.64L96.97 83.18C96.97 86.89 93.96 89.9 90.26 89.9L83.68 89.9L83.68 95.84C87.84 98.06 91.68 100.84 95.12 104.15ZM93.05 71.59L84.74 71.59L79.3 82.44L82.87 86.81L90.26 86.81C92.26 86.81 93.89 85.18 93.89 83.18L93.89 78.11C93.89 77.25 94.58 76.56 95.43 76.56L96.7 76.56L93.05 71.59ZM74.51 66.55L83.94 68.5L92.56 68.5L92.58 68.39C93.23 65.11 92.84 61.69 91.52 58.64C89.55 59.59 87.35 60.13 85.03 60.13C80.89 60.13 77.01 62.34 74.9 65.89L74.51 66.55ZM69.49 72.42C69.49 74.21 70.65 75.68 72.08 75.68L73.03 75.68C73.49 75.68 73.93 75.88 74.22 76.24L77.16 79.83L81.51 71.15L71.96 69.17C70.59 69.25 69.49 70.67 69.49 72.42ZM72.93 92.61C75.41 92.61 77.82 93.11 80.09 94.1C80.26 94.18 80.43 94.25 80.59 94.33L80.59 88.9L73.26 79.94C71.86 81.78 69.76 83 67.45 83.31L67.45 93.47C69.18 92.91 71.02 92.61 72.93 92.61Z" />
									<path id="XMLID_975_" class="shp4" d="M61.48 52.29C61.89 52.29 62.28 52.12 62.57 51.84C62.86 51.55 63.02 51.15 63.02 50.75C63.02 50.34 62.86 49.94 62.57 49.65C62.28 49.37 61.89 49.2 61.48 49.2C61.07 49.2 60.68 49.37 60.39 49.65C60.1 49.94 59.94 50.34 59.94 50.75C59.94 51.15 60.1 51.55 60.39 51.84C60.68 52.12 61.07 52.29 61.48 52.29Z" />
									<path id="XMLID_978_" fill-rule="evenodd" class="shp4" d="M132.46 60.21C133.31 60.21 134 60.9 134 61.75C134 62.6 133.31 63.29 132.46 63.29L130.74 63.29C130.56 64.11 130.24 64.87 129.8 65.55L131.02 66.77C131.62 67.37 131.62 68.35 131.02 68.95C130.72 69.25 130.32 69.4 129.93 69.4C129.53 69.4 129.14 69.25 128.84 68.95L127.62 67.74C126.94 68.17 126.17 68.49 125.36 68.68L125.36 70.39C125.36 71.24 124.67 71.93 123.82 71.93C122.96 71.93 122.27 71.24 122.27 70.39L122.27 68.68C121.46 68.5 120.7 68.17 120.01 67.74L118.8 68.95C118.5 69.25 118.1 69.4 117.71 69.4C117.31 69.4 116.92 69.25 116.62 68.95C116.01 68.35 116.01 67.37 116.62 66.77L117.83 65.55C117.39 64.87 117.07 64.11 116.89 63.29L115.18 63.29C114.32 63.29 113.63 62.6 113.63 61.75C113.63 60.9 114.32 60.21 115.18 60.21L116.89 60.21C117.07 59.39 117.39 58.63 117.83 57.95L116.62 56.73C116.01 56.13 116.01 55.15 116.62 54.55C117.22 53.95 118.19 53.95 118.8 54.55L120.01 55.76C120.7 55.33 121.46 55 122.27 54.82L122.27 53.11C122.27 52.26 122.96 51.57 123.82 51.57C124.67 51.57 125.36 52.26 125.36 53.11L125.36 54.82C126.17 55 126.94 55.33 127.62 55.76L128.83 54.55C129.44 53.95 130.41 53.95 131.02 54.55C131.62 55.15 131.62 56.13 131.02 56.73L129.8 57.94C130.24 58.63 130.56 59.39 130.74 60.21L132.46 60.21ZM127.83 61.75C127.83 59.54 126.03 57.74 123.82 57.74C121.6 57.74 119.8 59.54 119.8 61.75C119.8 63.96 121.6 65.76 123.82 65.76C126.03 65.76 127.83 63.96 127.83 61.75Z" />
									<path id="XMLID_981_" fill-rule="evenodd" class="shp4" d="M123.82 91.07C124.67 91.07 125.36 91.76 125.36 92.61C125.36 93.46 124.67 94.15 123.82 94.15L122.1 94.15C121.92 94.97 121.6 95.73 121.16 96.41L122.38 97.63C122.98 98.23 122.98 99.21 122.38 99.81C122.08 100.11 121.68 100.26 121.29 100.26C120.89 100.26 120.5 100.11 120.19 99.81L118.98 98.6C118.3 99.03 117.53 99.35 116.72 99.54L116.72 101.25C116.72 102.1 116.03 102.79 115.18 102.79C114.32 102.79 113.63 102.1 113.63 101.25L113.63 99.54C112.82 99.35 112.05 99.03 111.37 98.6L110.16 99.81C109.86 100.11 109.46 100.26 109.07 100.26C108.67 100.26 108.28 100.11 107.97 99.81C107.37 99.21 107.37 98.23 107.97 97.63L109.19 96.41C108.75 95.73 108.43 94.97 108.25 94.15L106.54 94.15C105.68 94.15 104.99 93.46 104.99 92.61C104.99 91.76 105.68 91.07 106.54 91.07L108.25 91.07C108.43 90.25 108.75 89.49 109.19 88.8L107.97 87.59C107.37 86.99 107.37 86.01 107.97 85.41C108.58 84.81 109.55 84.81 110.16 85.41L111.37 86.62C112.05 86.19 112.82 85.86 113.63 85.68L113.63 83.97C113.63 83.12 114.32 82.43 115.18 82.43C116.03 82.43 116.72 83.12 116.72 83.97L116.72 85.68C117.53 85.86 118.3 86.19 118.98 86.62L120.19 85.41C120.8 84.81 121.77 84.81 122.38 85.41C122.98 86.01 122.98 86.99 122.38 87.59L121.16 88.8C121.6 89.49 121.92 90.25 122.1 91.07L123.82 91.07ZM119.19 92.61C119.19 90.4 117.39 88.6 115.18 88.6C112.96 88.6 111.16 90.4 111.16 92.61C111.16 94.82 112.96 96.62 115.18 96.62C117.39 96.62 119.19 94.82 119.19 92.61Z" />
								</g>
							</g>
						</g>
					</g>
				</g>
			</g>
		</g>
	</g>
</svg>