<svg xmlns="http://www.w3.org/2000/svg" viewBox="0 0 189 164" width="189" height="164">
	<defs>
		<clipPath clipPathUnits="userSpaceOnUse" id="cp1">
			<path d="M-1335 -1700L585 -1700L585 4319L-1335 4319Z" />
		</clipPath>
	</defs>
	<style>
		tspan { white-space:pre }
		.shp0 { fill: #ffe8f2 } 
		.shp1 { fill: #ffd0c7 } 
		.shp2 { fill: #ffd5c7 } 
		.shp3 { fill: #cb0476 } 
		.shp4 { fill: #fe0470 } 
		.shp5 { fill: #d5f7ed } 
		.shp6 { fill: #ffa700 } 
		.shp7 { fill: #ffdfc5 } 
		.shp8 { fill: #000000 } 
	</style>
	<g id="CovidZone" clip-path="url(#cp1)">
		<g id="How can contagious it">
			<g id="Detalis">
				<g id="3">
					<g id="Icon">
						<path id="Path 53" class="shp0" d="M91.01 1.94C138.01 16.94 221.01 68.94 176.01 86.94C131.01 104.94 127.01 173.94 91.01 161.94C55.01 149.94 -21.99 110.94 6.01 86.94C34.01 62.94 44.01 -13.06 91.01 1.94Z" />
						<g id="Corona Virus Symptoms Cough">
							<g id="Filled">
								<path id="Path 72" class="shp1" d="M105.49 60.74L74.25 60.74L74.25 71.77L70.19 76.99L74.25 79.49L75.18 82.57C79.25 81.99 79.74 83.59 80.5 85.74L76.7 87.64C77.43 90.07 79.94 91.5 82.4 90.88L88 89.48L88 95.73C88 95.73 86.34 97.6 84.38 100.73C94.34 100.68 105.49 94.48 105.49 94.48L105.49 60.74Z" />
								<path id="Path 73" class="shp2" d="M105.5 71.48C102.22 79.8 95.99 86.62 88 90.64L88 95.73C88 95.73 86.35 97.6 84.38 100.73C94.35 100.68 105.5 94.48 105.5 94.48L105.5 71.48Z" />
								<path id="Path 74" class="shp3" d="M84.38 100.73C76.96 112.58 78.13 121.37 78 121.98L114.24 121.98L114.24 120.73C114.24 111.98 112.99 104.48 105.5 94.48C105.5 94.48 94.35 100.68 84.38 100.73Z" />
								<path id="Path 75" class="shp3" d="M110.08 101.68C103.68 113.05 91.1 119.48 78.13 118.03C77.95 119.96 78.02 121.11 78 121.98L114.24 121.98C114.06 118.46 114.89 110.96 110.08 101.68L110.08 101.68Z" />
								<path id="Path 76" class="shp4" d="M99.25 103.23C95.11 103.23 91.75 106.59 91.75 110.73L91.75 121.98L106.75 121.98L106.75 110.73C106.75 106.59 103.39 103.23 99.25 103.23Z" />
								<path id="Ellipse 13" class="shp5" d="M98 111.98C96.62 111.98 95.5 110.86 95.5 109.48C95.5 108.1 96.62 106.98 98 106.98C99.38 106.98 100.5 108.1 100.5 109.48C100.5 110.86 99.38 111.98 98 111.98Z" />
								<path id="Ellipse 14" class="shp4" d="M101.75 114.48C101.06 114.48 100.5 113.92 100.5 113.23C100.5 112.54 101.06 111.98 101.75 111.98C102.44 111.98 103 112.54 103 113.23C103 113.92 102.44 114.48 101.75 114.48Z" />
								<path id="Path 77" class="shp6" d="M68.04 46.77C68.04 46.77 66.79 64.27 80.11 64.49L91.75 64.49C93.9 64.27 95.5 65.52 95.5 67.69C95.5 74.26 95.51 84.26 105.49 88.01C121.22 67.96 118.56 48.22 109.07 47.87C104.24 36.77 82.53 49.13 72.84 49.13C69.21 49.13 68.04 46.77 68.04 46.77L68.04 46.77Z" />
								<path id="Path 78" class="shp6" d="M112.75 49.21C111.46 59.94 105.2 69.45 95.85 74.86C96.56 80.11 98.76 85.48 105.49 88.01C118.93 70.89 118.95 53.99 112.75 49.21L112.75 49.21Z" />
								<path id="Path 79" class="shp7" d="M95.5 70.52C95.5 65.52 101.75 65.52 101.75 71.76C101.75 75.22 100.2 78.01 96.75 78.01L91.75 78.01L91.75 70.52L95.5 70.52Z" />
								<path id="Ellipse 15" class="shp3" d="M97.37 54.49C94.95 54.49 93 52.54 93 50.12C93 47.7 94.95 45.75 97.37 45.75C99.79 45.75 101.75 47.7 101.75 50.12C101.75 52.54 99.79 54.49 97.37 54.49Z" />
								<path id="Ellipse 16" class="shp3" d="M104.87 56.99C103.83 56.99 103 56.15 103 55.12C103 54.08 103.83 53.24 104.87 53.24C105.91 53.24 106.74 54.08 106.74 55.12C106.74 56.15 105.91 56.99 104.87 56.99Z" />
								<path id="Path 80" class="shp2" d="M100.42 67.82C100.01 71.9 97.87 75.61 94.54 78.01L96.75 78.01C102.39 78.01 102.73 70.17 100.42 67.82Z" />
								<path id="Path 81" class="shp1" d="M58.01 121.98L67.43 121.98L66.76 113.23C71.44 106.98 70.35 100.71 70.51 99.48C70.51 98.1 69.39 96.98 68.01 96.98C66.63 96.98 65.51 98.1 65.51 99.48L65.51 102.3C65.51 104.76 62.04 105.33 61.26 102.99L59.26 96.98L60.85 90.62C61.07 89.75 60.87 88.82 60.32 88.11C59.76 87.4 58.91 86.98 58.01 86.98L54.26 96.98L58.01 113.23L58.01 121.98Z" />
							</g>
							<g id="Outline">
								<path id="Path 82" class="shp8" d="M96.75 76.76C96.06 76.76 95.5 77.32 95.5 78.01C95.5 78.7 96.06 79.26 96.75 79.26C105.04 79.26 104.65 65.66 98.36 65.66C94.28 65.66 92.99 71.76 95.5 71.76C96.19 71.76 96.75 71.21 96.75 70.52C96.75 68.89 97.56 68.16 98.36 68.16C101.31 68.16 101.66 76.76 96.75 76.76Z" />
								<path id="Path 83" class="shp8" d="M99.25 101.98C94.42 101.99 90.5 105.9 90.5 110.73L90.5 120.73C90.5 121.42 91.06 121.98 91.75 121.98C92.44 121.98 93 121.42 93 120.73L93 110.73C93 107.28 95.8 104.48 99.25 104.48C102.7 104.48 105.49 107.28 105.49 110.73L105.49 120.73C105.49 122.38 107.99 122.38 107.99 120.73L107.99 110.73C107.99 105.9 104.08 101.99 99.25 101.98Z" />
								<path id="Path 84" class="shp8" d="M66.76 84.49L69.25 84.49C70.91 84.49 70.91 81.99 69.25 81.99L66.76 81.99C65.1 81.99 65.1 84.49 66.76 84.49Z" />
								<path id="Path 85" class="shp8" d="M73 91.98L73 94.48C73 96.14 75.5 96.14 75.5 94.48L75.5 91.98C75.5 90.33 73 90.33 73 91.98Z" />
								<path id="Path 86" class="shp8" d="M67.12 89.85C65.95 91.02 67.72 92.79 68.89 91.62L71.39 89.12C72.56 87.95 70.79 86.18 69.62 87.35L67.12 89.85Z" />
								<path id="Path 87" class="shp8" d="M68.01 95.73C65.94 95.74 64.26 97.41 64.26 99.48L64.26 102.3C64.26 103.35 62.78 103.59 62.45 102.6L60.56 96.93C61.41 92.19 63.26 89.86 61.3 87.34C60.17 85.89 57.43 84.98 56.84 86.55C52.94 97.15 52.89 96.61 53.04 97.26L56.76 113.37L56.76 120.73C56.76 121.42 57.32 121.98 58.01 121.98C58.7 121.98 59.26 121.42 59.26 120.73C59.25 112.86 59.29 113.2 59.23 112.95L55.56 97.07L58.8 88.43C59.48 88.8 59.82 89.57 59.64 90.32C58.06 96.9 57.87 96.77 58.07 97.38L60.08 103.39C61.3 107.06 66.76 106.18 66.76 102.3L66.76 99.48C66.76 97.83 69.26 97.83 69.26 99.48C69.11 100.69 70.15 106.61 65.76 112.48C65.57 112.72 65.49 113.02 65.51 113.32L66.09 120.82C66.14 121.47 66.68 121.98 67.33 121.98C67.36 121.98 67.4 121.97 67.43 121.97C68.12 121.92 68.63 121.32 68.58 120.63L68.04 113.59C72.67 107.09 71.61 100.68 71.76 99.48C71.75 97.41 70.08 95.74 68.01 95.73Z" />
								<path id="Path 88" class="shp8" d="M117.04 67.85C118.5 61.64 118.29 56.01 116.43 52.01C115 48.93 112.69 47.07 109.89 46.69C107.13 41.51 100.98 41.5 95.22 42.55C93.59 42.85 94.05 45.31 95.67 45.01C102.59 43.74 106.36 44.78 107.93 48.37C108.12 48.81 108.55 49.11 109.03 49.12C117.08 49.42 119.5 67.57 105.09 86.5C102.94 85.55 101.25 84.23 99.96 82.49C99.55 81.94 98.76 81.82 98.21 82.23C97.66 82.64 97.54 83.43 97.95 83.98C99.52 86.09 101.64 87.73 104.24 88.85L104.24 93.73C102.01 94.88 94.31 98.6 86.8 99.35C90.49 94.07 88.81 98.7 89.25 89.48C89.25 89.1 89.07 88.74 88.77 88.5C87.93 87.85 87.44 88.49 82.1 89.67C80.66 90.03 79.16 89.45 78.33 88.22C79.8 87.27 82.26 86.95 81.68 85.32C80.78 82.78 79.88 81 76.08 81.23L75.45 79.13C75.22 78.36 74.62 78.35 72.03 76.65C76.48 70.43 75.38 74.87 75.5 64.9C79.41 66.39 82.78 65.41 91.75 65.74C93.4 65.74 93.4 63.24 91.75 63.24L80.17 63.24C79.93 63.08 70.19 64.27 69.31 49.58C73.12 51.56 79.46 49.39 86.17 47.44C87.75 46.97 87.05 44.57 85.46 45.04C78.15 47.33 70.98 49.42 69.15 46.21C68.63 45.08 66.89 45.36 66.79 46.68C66.38 52.36 68.06 60.06 73 63.57L73 71.34C67.61 78.59 67.41 76.5 73.19 80.3L73.98 82.93C74.63 85.09 77.71 82.16 78.94 85.12C77.3 86.16 75.02 86.41 75.5 88C76.42 91.07 79.6 92.88 82.71 92.1L86.75 91.09L86.75 95.27C81.3 101.81 76.75 111.57 76.75 120.73C76.75 121.42 77.31 121.98 78 121.98C78.69 121.98 79.25 121.42 79.25 120.73C79.25 113.23 82.4 106.43 85.1 101.97C93.45 101.7 102.23 97.57 105.13 96.09C116.99 112.46 110.57 121.98 114.24 121.98C114.93 121.98 115.49 121.42 115.49 120.73C115.49 111.57 114.02 103.9 106.74 94.07L106.74 88.44C111.87 81.82 115.43 74.71 117.04 67.85L117.04 67.85Z" />
								<path id="Path 89" class="shp8" d="M91.75 44.5C91.75 42.84 89.25 42.84 89.25 44.5C89.25 46.15 91.75 46.15 91.75 44.5Z" />
							</g>
						</g>
					</g>
				</g>
			</g>
		</g>
	</g>
</svg>