<svg xmlns="http://www.w3.org/2000/svg" viewBox="0 0 189 164" width="189" height="164">
	<defs>
		<clipPath clipPathUnits="userSpaceOnUse" id="cp1">
			<path d="M-1335 -2742L585 -2742L585 3277L-1335 3277Z" />
		</clipPath>
	</defs>
	<style>
		tspan { white-space:pre }
		.shp0 { fill: #ffe8f2 } 
		.shp1 { fill: #ffa700 } 
		.shp2 { fill: #ffd0c7 } 
		.shp3 { fill: #f7c4a8 } 
		.shp4 { fill: #e8a990 } 
		.shp5 { fill: #fe0470 } 
		.shp6 { fill: #e84642 } 
		.shp7 { fill: #ff74c4 } 
		.shp8 { fill: #000000 } 
	</style>
	<g id="CovidZone" clip-path="url(#cp1)">
		<g id="How can Prevention it">
			<g id="Detalis">
				<g id="3">
					<g id="Icon">
						<path id="Path 53" class="shp0" d="M91.01 1.94C138.01 16.94 221.01 68.94 176.01 86.94C131.01 104.94 127.01 173.94 91.01 161.94C55.01 149.94 -21.99 110.94 6.01 86.94C34.01 62.94 44.01 -13.06 91.01 1.94Z" />
						<g id="face-mask">
							<g id="Group 21">
								<g id="Group 20">
									<path id="Path 143" class="shp1" d="M64.48 64.11C64.48 64.11 59.13 56.89 59.28 46.6C59.28 46.6 62.31 47.32 64.98 46.6C70.22 45.18 75.38 34.79 84.46 34.48C93.55 34.18 95.31 38.42 95.31 38.42C95.31 38.42 98.65 36.43 103.64 37.11C111.11 38.12 117.67 49.5 111 65.13" />
									<path id="Path 144" class="shp2" d="M102.72 57.92C99.48 54.93 95.87 49.75 94.42 47.59C94.09 47.09 93.38 47.05 92.98 47.49C85.66 55.48 76.19 58.14 71.95 58.97C70.65 59.22 69.72 60.35 69.72 61.67L69.72 70.22C69.72 79.82 77.5 87.59 87.09 87.59C96.68 87.59 104.46 79.82 104.46 70.22L104.46 61.93C104.46 60.41 103.84 58.95 102.72 57.92L102.72 57.92Z" />
									<path id="Path 145" class="shp3" d="M87.09 84.29C77.5 84.29 69.72 76.51 69.72 66.92L69.72 70.22C69.72 79.82 77.5 87.59 87.09 87.59C96.68 87.59 104.46 79.82 104.46 70.22L104.46 66.92C104.46 76.51 96.68 84.29 87.09 84.29Z" />
									<path id="Path 146" class="shp2" d="M69.72 70.22L69.72 64.09C68.95 63.67 68.07 63.42 67.12 63.42C64.14 63.42 61.71 65.85 61.71 68.83C61.71 71.82 64.14 74.24 67.12 74.24C68.19 74.24 69.18 73.93 70.02 73.4C69.83 72.37 69.72 71.31 69.72 70.22Z" />
									<path id="Path 147" class="shp2" d="M104.46 70.22L104.46 64.09C105.23 63.67 106.12 63.42 107.06 63.42C110.05 63.42 112.47 65.85 112.47 68.83C112.47 71.82 110.05 74.24 107.06 74.24C106 74.24 105.01 73.93 104.17 73.4C104.36 72.37 104.46 71.31 104.46 70.22Z" />
									<path id="Path 148" class="shp4" d="M67.12 70.94C64.71 70.94 62.67 69.36 61.97 67.18C61.8 67.7 61.71 68.26 61.71 68.83C61.71 71.82 64.14 74.24 67.12 74.24C68.19 74.24 69.18 73.93 70.02 73.4C69.83 72.39 69.73 71.34 69.73 70.27C68.95 70.69 68.07 70.94 67.12 70.94Z" />
									<path id="Path 149" class="shp4" d="M107.06 70.94C106.12 70.94 105.23 70.69 104.46 70.27C104.46 71.34 104.36 72.39 104.17 73.4C105.01 73.93 106 74.24 107.06 74.24C110.05 74.24 112.47 71.82 112.47 68.83C112.47 68.26 112.38 67.7 112.21 67.18C111.52 69.36 109.47 70.94 107.06 70.94Z" />
									<path id="Path 150" class="shp5" d="M95.23 85.57C92.8 86.86 90.03 87.59 87.09 87.59C84.15 87.59 81.39 86.86 78.96 85.57C67.24 88.03 58.44 98.42 58.44 110.87L58.44 125.53L115.75 125.53L115.75 110.87C115.75 98.42 106.95 88.03 95.23 85.57Z" />
									<path id="Path 151" class="shp6" d="M58.44 122.23L115.75 122.23L115.75 125.53L58.44 125.53L58.44 122.23Z" />
									<path id="Path 152" class="shp2" d="M87.09 87.59C84.13 87.59 81.34 86.85 78.9 85.54C78.89 85.76 78.88 85.97 78.88 86.19C78.88 90.73 82.55 94.41 87.09 94.41C91.63 94.41 95.31 90.73 95.31 86.19C95.31 85.97 95.3 85.76 95.28 85.54C92.84 86.85 90.05 87.59 87.09 87.59Z" />
									<path id="Path 153" class="shp2" d="M102.58 117.16L115.75 117.16L115.75 125.53L102.58 125.53L102.58 117.16Z" />
									<path id="Path 154" class="shp2" d="M71.6 125.53L58.44 125.53L58.44 117.16L71.6 117.16L71.6 125.53Z" />
									<path id="Path 155" class="shp1" d="M102.58 122.23L115.75 122.23L115.75 125.53L102.58 125.53L102.58 122.23Z" />
									<path id="Path 156" class="shp1" d="M58.44 122.23L71.6 122.23L71.6 125.53L58.44 125.53L58.44 122.23Z" />
									<path id="Path 157" class="shp1" d="M102.23 78.74C100.51 76.78 94.38 70.42 87.09 70.42C79.8 70.42 73.67 76.78 71.95 78.74C74.93 84.02 80.59 87.59 87.09 87.59C93.59 87.59 99.25 84.02 102.23 78.74Z" />
									<path id="Path 158" class="shp7" d="M87.09 84.29C81.43 84.29 76.4 81.58 73.23 77.38C72.68 77.93 72.25 78.4 71.95 78.74C74.93 84.02 80.59 87.59 87.09 87.59C93.59 87.59 99.25 84.02 102.23 78.74C101.93 78.4 101.5 77.93 100.96 77.38C97.79 81.58 92.76 84.29 87.09 84.29Z" />
								</g>
							</g>
							<g id="Group 22">
								<path id="Path 159" class="shp8" d="M79.19 68.65C79.96 68.65 80.57 68.03 80.57 67.27L80.57 64.81C80.57 64.05 79.96 63.43 79.19 63.43C78.43 63.43 77.81 64.05 77.81 64.81L77.81 67.27C77.81 68.03 78.43 68.65 79.19 68.65Z" />
								<path id="Path 160" class="shp8" d="M94.99 68.65C95.75 68.65 96.37 68.03 96.37 67.27L96.37 64.81C96.37 64.05 95.75 63.43 94.99 63.43C94.23 63.43 93.61 64.05 93.61 64.81L93.61 67.27C93.61 68.03 94.23 68.65 94.99 68.65Z" />
								<path id="Path 161" fill-rule="evenodd" class="shp8" d="M117.18 110.93L117.18 125.62C117.18 126.39 116.57 127 115.81 127L84.71 127C83.95 127 83.33 126.39 83.33 125.62C83.33 124.86 83.95 124.24 84.71 124.24L101.23 124.24L101.23 109.34C101.23 108.58 101.85 107.96 102.61 107.96C103.37 107.96 103.99 108.58 103.99 109.34L103.99 115.85L114.43 115.85L114.43 110.93C114.43 105.81 112.86 100.9 109.91 96.75C109.47 96.13 109.61 95.27 110.24 94.82C110.86 94.38 111.72 94.53 112.16 95.15C115.45 99.78 117.18 105.23 117.18 110.93ZM114.43 118.61L103.99 118.61L103.99 124.24L114.43 124.24L114.43 118.61Z" />
								<path id="Path 162" fill-rule="evenodd" class="shp8" d="M80.57 125.62C80.57 126.39 79.96 127 79.19 127L58.38 127C57.62 127 57 126.39 57 125.62L57 110.93C57 104.63 59.2 98.48 63.19 93.62C66.46 89.65 70.79 86.68 75.62 85.06C72.48 82.64 70.13 79.24 69.02 75.33C68.4 75.51 67.74 75.61 67.08 75.61C63.33 75.61 60.28 72.56 60.28 68.81C60.28 66.8 61.17 64.99 62.56 63.74C61.02 61.23 57.72 54.87 57.84 46.51C57.83 45.66 58.71 44.97 59.54 45.19C59.57 45.2 62.28 45.82 64.58 45.2C66.31 44.73 68.32 42.82 70.26 40.97C70.81 40.44 71.69 40.46 72.21 41.01C72.74 41.56 72.72 42.44 72.17 42.96C69.98 45.05 67.71 47.21 65.3 47.86C63.63 48.31 61.87 48.27 60.62 48.15C60.92 55.04 63.71 60.33 64.96 62.36C65.63 62.13 66.34 62.01 67.08 62.01C67.5 62.01 67.91 62.05 68.31 62.13L68.31 61.64C68.31 59.66 69.72 57.95 71.65 57.57C75.38 56.85 84.82 54.31 91.97 46.49C92.92 45.4 94.81 45.53 95.58 46.76C96.97 48.83 100.54 53.95 103.69 56.86C105.08 58.14 105.87 59.98 105.87 61.9L105.87 62.13C106.28 62.05 106.69 62.01 107.1 62.01C108.32 62.01 109.46 62.34 110.45 62.9C114.3 52.6 111.64 46 110.26 43.57C108.59 40.63 106.12 38.75 103.49 38.39C99.02 37.79 96.06 39.51 96.03 39.53C95.34 39.98 94.33 39.67 94.06 38.89C93.93 38.65 92.11 35.52 84.5 35.77C81.76 35.87 79.11 37 76.18 39.35C75.58 39.82 74.71 39.73 74.24 39.13C73.76 38.54 73.86 37.67 74.45 37.19C77.88 34.46 81.04 33.13 84.41 33.02C88.47 32.88 91.72 33.58 94.06 35.1C94.84 35.61 95.41 36.14 95.8 36.6C97.31 35.99 100.18 35.16 103.86 35.66C107.36 36.13 110.56 38.52 112.66 42.2C116.06 48.19 116.04 56.42 112.64 64.87C113.43 65.99 113.9 67.34 113.9 68.81C113.9 72.56 110.85 75.61 107.1 75.61C106.44 75.61 105.79 75.51 105.16 75.33C104.05 79.24 101.7 82.64 98.57 85.06C102.16 86.27 105.48 88.21 108.31 90.79C108.87 91.31 108.91 92.18 108.39 92.74C107.88 93.3 107.01 93.34 106.44 92.83C103.63 90.26 100.27 88.38 96.63 87.35C96.07 92.11 92 95.81 87.09 95.81C82.18 95.81 78.12 92.11 77.55 87.35C72.79 88.71 68.5 91.52 65.32 95.38C61.74 99.74 59.76 105.27 59.76 110.93L59.76 115.85L70.19 115.85L70.19 109.34C70.19 108.58 70.81 107.96 71.57 107.96C72.34 107.96 72.95 108.58 72.95 109.34L72.95 124.24L79.19 124.24C79.96 124.24 80.57 124.86 80.57 125.62ZM101.89 76.34C102.68 74.45 103.11 72.38 103.11 70.21L103.11 68.33L99.12 73.87C100.22 74.74 101.16 75.6 101.89 76.34ZM105.87 64.96L105.87 70.21C105.87 71.02 105.82 71.82 105.72 72.61C106.16 72.77 106.63 72.85 107.1 72.85C109.33 72.85 111.14 71.04 111.14 68.81C111.14 66.58 109.33 64.77 107.1 64.77C106.68 64.77 106.27 64.84 105.87 64.96ZM72.18 60.28C71.54 60.41 71.07 60.98 71.07 61.64L71.07 63.61L77.3 72.26C80.04 70.49 83.42 69.02 87.09 69.02C90.77 69.02 94.14 70.49 96.88 72.26L103.11 63.61L103.11 61.9C103.11 60.75 102.64 59.65 101.82 58.89C98.68 55.99 95.24 51.16 93.62 48.78C85.96 56.87 76.11 59.52 72.18 60.28ZM75.06 73.87L71.07 68.33L71.07 70.21C71.07 72.38 71.51 74.45 72.29 76.34C73.03 75.6 73.96 74.74 75.06 73.87ZM68.46 72.61C68.36 71.82 68.31 71.02 68.31 70.21L68.31 64.96C67.92 64.84 67.5 64.77 67.08 64.77C64.86 64.77 63.04 66.58 63.04 68.81C63.04 71.04 64.86 72.85 67.08 72.85C67.56 72.85 68.02 72.77 68.46 72.61ZM73.64 78.9C76.5 83.31 81.46 86.23 87.09 86.23C92.72 86.23 97.69 83.31 100.54 78.9C98.32 76.55 93.08 71.78 87.09 71.78C84.25 71.78 81.26 72.85 78.2 74.97C76.22 76.34 74.65 77.84 73.64 78.9ZM80.42 87.76C81.13 90.79 83.85 93.05 87.09 93.05C90.33 93.05 93.06 90.79 93.76 87.76C91.69 88.55 89.44 88.99 87.09 88.99C84.74 88.99 82.5 88.55 80.42 87.76ZM70.19 118.61L59.76 118.61L59.76 124.24L70.19 124.24L70.19 118.61Z" />
							</g>
						</g>
					</g>
				</g>
			</g>
		</g>
	</g>
</svg>