<svg xmlns="http://www.w3.org/2000/svg" viewBox="0 0 189 164" width="189" height="164">
	<defs>
		<clipPath clipPathUnits="userSpaceOnUse" id="cp1">
			<path d="M-1335 -2071L585 -2071L585 3948L-1335 3948Z" />
		</clipPath>
	</defs>
	<style>
		tspan { white-space:pre }
		.shp0 { fill: #ffe8f2 } 
		.shp1 { fill: #ffd0c7 } 
		.shp2 { fill: #f7c4a8 } 
		.shp3 { fill: #ffa700 } 
		.shp4 { fill: #fdd4bb } 
		.shp5 { fill: #ebbaa1 } 
		.shp6 { fill: #e8a990 } 
		.shp7 { fill: #fe0470 } 
		.shp8 { fill: #e84642 } 
		.shp9 { fill: #000000 } 
	</style>
	<g id="CovidZone" clip-path="url(#cp1)">
		<g id="How can contagious it">
			<g id="Detalis">
				<g id="6">
					<g id="Icon">
						<path id="Path 53" class="shp0" d="M91.01 1.94C138.01 16.94 221.01 68.94 176.01 86.94C131.01 104.94 127.01 173.94 91.01 161.94C55.01 149.94 -21.99 110.94 6.01 86.94C34.01 62.94 44.01 -13.06 91.01 1.94Z" />
						<g id="infected (1)">
							<g id="Group 18">
								<path id="Path 122" class="shp1" d="M108.26 96.76C105.39 91.31 100.26 87.41 94.25 86.1L88.99 84.94C87.05 85.97 84.84 86.56 82.5 86.56C80.15 86.56 77.95 85.97 76.01 84.94L70.75 86.1C64.74 87.41 59.61 91.31 56.74 96.76L46.17 116.83L57 116.83L62.58 106.65L62.58 116.83L102.42 116.83L102.42 106.65L108 116.83L118.83 116.83L108.26 96.76Z" />
								<g id="Group 16">
									<path id="Path 123" class="shp2" d="M47.56 114.19L46.17 116.83L57 116.83L58.45 114.19L47.56 114.19Z" />
									<path id="Path 124" class="shp2" d="M62.58 114.19L102.42 114.19L102.42 116.83L62.58 116.83L62.58 114.19Z" />
									<path id="Path 125" class="shp2" d="M106.55 114.19L108 116.83L118.83 116.83L117.44 114.19L106.55 114.19Z" />
								</g>
								<path id="Path 126" class="shp3" d="M64.46 67.82C64.46 67.82 60.19 62.06 60.31 53.85C60.31 53.85 62.72 54.42 64.86 53.85C69.04 52.72 73.15 44.43 80.4 44.18C87.65 43.94 89.05 47.32 89.05 47.32C89.05 47.32 91.72 45.74 95.7 46.28C101.66 47.08 106.9 56.16 101.58 68.63" />
								<path id="Path 127" class="shp4" d="M94.97 62.88C92.38 60.49 89.5 56.36 88.35 54.64C88.08 54.24 87.52 54.21 87.19 54.56C81.36 60.93 73.8 63.06 70.42 63.72C69.38 63.92 68.64 64.82 68.64 65.87L68.64 72.7C68.64 80.35 74.85 86.56 82.5 86.56C90.15 86.56 96.36 80.35 96.36 72.7L96.36 66.08C96.36 64.87 95.86 63.7 94.97 62.88Z" />
								<path id="Path 128" class="shp2" d="M82.5 83.92C74.85 83.92 68.64 77.71 68.64 70.06L68.64 72.7C68.64 80.35 74.85 86.56 82.5 86.56C90.15 86.56 96.36 80.35 96.36 72.7L96.36 70.06C96.36 77.71 90.15 83.92 82.5 83.92Z" />
								<path id="Path 129" class="shp5" d="M68.64 72.7L68.64 67.8C68.03 67.47 67.32 67.27 66.57 67.27C64.18 67.27 62.25 69.2 62.25 71.59C62.25 73.97 64.18 75.9 66.57 75.9C67.42 75.9 68.21 75.66 68.87 75.23C68.72 74.41 68.64 73.56 68.64 72.7Z" />
								<path id="Path 130" class="shp5" d="M96.36 72.7L96.36 67.8C96.97 67.47 97.68 67.27 98.43 67.27C100.82 67.27 102.75 69.2 102.75 71.59C102.75 73.97 100.82 75.9 98.43 75.9C97.58 75.9 96.79 75.66 96.12 75.23C96.28 74.41 96.36 73.56 96.36 72.7Z" />
								<path id="Path 131" class="shp6" d="M66.57 73.27C64.64 73.27 63.01 72.01 62.46 70.27C62.32 70.69 62.25 71.13 62.25 71.59C62.25 73.97 64.18 75.9 66.57 75.9C67.42 75.9 68.21 75.66 68.87 75.23C68.72 74.42 68.65 73.59 68.64 72.73C68.03 73.07 67.32 73.27 66.57 73.27Z" />
								<path id="Path 132" class="shp6" d="M98.43 73.27C97.68 73.27 96.97 73.07 96.36 72.73C96.35 73.59 96.27 74.42 96.12 75.23C96.79 75.66 97.58 75.9 98.43 75.9C100.82 75.9 102.75 73.97 102.75 71.59C102.75 71.13 102.67 70.69 102.54 70.27C101.98 72.01 100.36 73.27 98.43 73.27Z" />
								<path id="Path 133" class="shp7" d="M78.28 94.75L78.28 107.21C78.28 107.81 77.9 108.34 77.33 108.52L69.73 110.94C68.84 111.23 67.93 110.55 67.94 109.62C68 105.39 68.95 95.33 76.59 93.42C77.45 93.21 78.28 93.87 78.28 94.75L78.28 94.75Z" />
								<path id="Path 134" class="shp7" d="M86.72 94.75L86.72 107.21C86.72 107.81 87.1 108.34 87.67 108.52L95.27 110.94C96.16 111.23 97.07 110.55 97.05 109.62C97 105.39 96.05 95.33 88.41 93.42C87.55 93.21 86.72 93.87 86.72 94.75Z" />
								<g id="Group 17">
									<path id="Path 135" class="shp8" d="M77.33 105.88L69.73 108.31C69.01 108.53 68.29 108.14 68.04 107.5C67.98 108.3 67.95 109.02 67.94 109.62C67.93 110.55 68.84 111.23 69.73 110.94L77.33 108.52C77.9 108.34 78.28 107.81 78.28 107.21L78.28 104.58C78.28 105.17 77.9 105.7 77.33 105.88Z" />
									<path id="Path 136" class="shp8" d="M95.27 108.31L87.67 105.88C87.1 105.7 86.72 105.17 86.72 104.58L86.72 107.21C86.72 107.81 87.1 108.34 87.67 108.52L95.27 110.94C96.16 111.23 97.07 110.55 97.05 109.62C97.05 109.02 97.02 108.3 96.96 107.5C96.71 108.15 95.98 108.53 95.27 108.31Z" />
								</g>
							</g>
							<g id="Group 19">
								<path id="Path 137" class="shp9" d="M79.35 79.7C79.96 79.7 80.45 79.21 80.45 78.6C80.45 77.47 81.37 76.56 82.5 76.56C83.63 76.56 84.55 77.47 84.55 78.6C84.55 79.21 85.04 79.7 85.65 79.7C86.26 79.7 86.75 79.21 86.75 78.6C86.75 76.26 84.84 74.35 82.5 74.35C80.16 74.35 78.25 76.26 78.25 78.6C78.25 79.21 78.74 79.7 79.35 79.7Z" />
								<path id="Path 138" class="shp9" d="M73.84 71.46C74.04 71.82 74.41 72.02 74.8 72.02C74.98 72.02 75.17 71.98 75.34 71.88L78.18 70.28C78.53 70.09 78.75 69.71 78.74 69.3C78.73 68.9 78.5 68.53 78.14 68.34L75.3 66.88C74.76 66.6 74.1 66.81 73.82 67.35C73.54 67.89 73.75 68.56 74.29 68.84L75.32 69.37L74.26 69.96C73.73 70.26 73.54 70.93 73.84 71.46Z" />
								<path id="Path 139" class="shp9" d="M86.82 70.28L89.66 71.88C89.83 71.98 90.02 72.02 90.2 72.02C90.58 72.02 90.96 71.82 91.16 71.46C91.46 70.93 91.27 70.26 90.74 69.96L89.68 69.37L90.7 68.84C91.25 68.56 91.46 67.89 91.18 67.35C90.9 66.81 90.23 66.6 89.69 66.88L86.85 68.34C86.49 68.53 86.27 68.9 86.26 69.3C86.25 69.71 86.47 70.09 86.82 70.28Z" />
								<path id="Path 140" fill-rule="evenodd" class="shp9" d="M85.62 107.27L85.62 98.91C83.67 97.86 81.33 97.86 79.38 98.91L79.38 107.27C79.38 108.35 78.68 109.29 77.65 109.62L70.04 112.05C69.79 112.13 69.54 112.17 69.29 112.17C68.76 112.17 68.25 112 67.82 111.68C67.18 111.21 66.8 110.45 66.81 109.66C66.87 105.16 67.91 94.48 76.31 92.38C77.05 92.19 77.82 92.36 78.42 92.83C79.03 93.3 79.38 94.01 79.38 94.78L79.38 96.5C80.03 96.25 80.71 96.08 81.4 95.99L81.4 91.24C81.4 90.64 81.89 90.14 82.5 90.14C83.11 90.14 83.6 90.64 83.6 91.24L83.6 95.99C84.29 96.08 84.97 96.25 85.62 96.5L85.62 94.78C85.62 94.01 85.97 93.3 86.58 92.83C87.18 92.36 87.95 92.2 88.68 92.38C97.08 94.48 98.13 105.16 98.18 109.66C98.19 110.46 97.82 111.21 97.18 111.68C96.75 112 96.23 112.17 95.71 112.17C95.46 112.17 95.2 112.13 94.96 112.05L87.34 109.62C86.31 109.29 85.62 108.35 85.62 107.27ZM87.83 94.78L87.83 107.27C87.83 107.38 87.9 107.49 88.01 107.52L95.63 109.95C95.74 109.99 95.82 109.95 95.87 109.91C95.92 109.87 95.98 109.8 95.98 109.69C95.93 105.7 95.06 96.24 88.15 94.52C88.13 94.51 88.11 94.51 88.09 94.51C88.02 94.51 87.97 94.54 87.93 94.57C87.89 94.6 87.83 94.67 87.83 94.78L87.83 94.78ZM77.17 107.27L77.17 94.78C77.17 94.67 77.11 94.6 77.07 94.57C77.03 94.54 76.98 94.51 76.91 94.51C76.89 94.51 76.87 94.51 76.85 94.52C69.93 96.24 69.07 105.7 69.02 109.69C69.02 109.8 69.08 109.87 69.13 109.91C69.18 109.95 69.26 109.99 69.37 109.95L76.99 107.52C77.1 107.49 77.17 107.38 77.17 107.27L77.17 107.27Z" />
								<path id="Path 141" class="shp9" d="M119.87 116.38L111.33 100.17C111.05 99.63 110.38 99.43 109.84 99.71C109.31 99.99 109.1 100.66 109.38 101.2L117.07 115.79L108.7 115.79L103.42 106.17C103.18 105.73 102.67 105.51 102.18 105.63C101.69 105.76 101.35 106.2 101.35 106.7L101.35 115.79L76.68 115.79C76.07 115.79 75.57 116.29 75.57 116.9C75.57 117.5 76.07 118 76.68 118L102.45 118C103.06 118 103.56 117.5 103.56 116.9L103.56 111L107.08 117.43C107.28 117.78 107.65 118 108.05 118L118.9 118C119.28 118 119.64 117.8 119.84 117.47C120.04 117.14 120.05 116.72 119.87 116.38Z" />
								<path id="Path 142" fill-rule="evenodd" class="shp9" d="M72.27 115.79C72.88 115.79 73.38 116.29 73.38 116.9C73.38 117.5 72.88 118 72.27 118L62.54 118C61.94 118 61.44 117.5 61.44 116.9L61.44 111L57.92 117.43C57.72 117.78 57.35 118 56.95 118L46.1 118C45.72 118 45.36 117.8 45.16 117.47C44.96 117.14 44.95 116.72 45.13 116.38L55.72 96.28C58.75 90.52 64.13 86.42 70.49 85.03L73.21 84.43C70.78 82.5 68.95 79.84 68.08 76.77C67.58 76.92 67.06 77 66.54 77C63.54 77 61.11 74.56 61.11 71.57C61.11 69.96 61.81 68.52 62.93 67.52C61.69 65.52 59.06 60.44 59.16 53.78C59.17 53.45 59.32 53.13 59.59 52.93C59.85 52.72 60.19 52.65 60.52 52.72C60.54 52.73 62.71 53.23 64.54 52.73C65.92 52.36 67.52 50.83 69.07 49.36C69.51 48.94 70.2 48.96 70.62 49.4C71.04 49.84 71.03 50.53 70.59 50.95C68.84 52.62 67.04 54.34 65.11 54.86C63.78 55.22 62.38 55.19 61.38 55.09C61.62 60.58 63.85 64.8 64.84 66.42C65.37 66.24 65.94 66.15 66.54 66.15C66.86 66.15 67.19 66.18 67.51 66.24L67.51 65.85C67.51 64.27 68.64 62.91 70.18 62.61C73.15 62.02 80.68 60 86.39 53.77C86.78 53.34 87.32 53.13 87.89 53.17C88.45 53.21 88.96 53.51 89.27 53.98C90.38 55.63 93.23 59.72 95.74 62.04L95.74 62.04C96.85 63.06 97.48 64.52 97.48 66.06L97.48 66.24C97.81 66.18 98.13 66.15 98.46 66.15C99.43 66.15 100.34 66.4 101.13 66.85C104.2 58.64 102.08 53.37 100.98 51.43C99.65 49.09 97.68 47.59 95.58 47.3C92.06 46.83 89.65 48.2 89.63 48.21C89.34 48.37 89.01 48.43 88.7 48.32C88.4 48.21 88.17 48 88.05 47.7C87.96 47.51 86.51 45.01 80.43 45.22C78.24 45.29 76.13 46.2 73.78 48.07C73.31 48.45 72.62 48.37 72.24 47.9C71.86 47.42 71.93 46.73 72.41 46.35C75.15 44.16 77.67 43.1 80.36 43.01C83.6 42.9 86.19 43.46 88.05 44.67C88.68 45.08 89.13 45.5 89.44 45.87C90.65 45.38 92.94 44.72 95.88 45.12C98.67 45.5 101.22 47.4 102.89 50.34C105.61 55.12 105.6 61.68 102.88 68.43C103.51 69.32 103.89 70.4 103.89 71.57C103.89 74.56 101.45 77 98.46 77C97.94 77 97.42 76.92 96.92 76.77C96.05 79.84 94.22 82.5 91.78 84.43L94.51 85.03C100.86 86.42 106.25 90.52 109.28 96.28C109.57 96.82 109.36 97.48 108.82 97.77C108.66 97.85 108.48 97.89 108.31 97.89C107.91 97.89 107.53 97.68 107.33 97.31C104.6 92.12 99.76 88.43 94.04 87.18L89.14 86.11C87.14 87.11 84.88 87.67 82.5 87.67C80.11 87.67 77.86 87.11 75.85 86.11L70.96 87.18C65.24 88.43 60.39 92.12 57.67 97.31L47.93 115.79L56.3 115.79L61.58 106.17C61.82 105.73 62.33 105.51 62.82 105.63C63.31 105.76 63.65 106.2 63.65 106.7L63.65 115.79L72.27 115.79ZM97.48 72.68C97.48 73.33 97.44 73.97 97.36 74.6C97.71 74.73 98.08 74.79 98.46 74.79C100.24 74.79 101.68 73.35 101.68 71.57C101.68 69.79 100.24 68.35 98.46 68.35C98.13 68.35 97.8 68.4 97.48 68.5L97.48 72.68ZM66.54 74.79C66.91 74.79 67.29 74.73 67.64 74.6C67.56 73.97 67.51 73.33 67.51 72.68L67.51 68.5C67.2 68.4 66.87 68.35 66.54 68.35C64.76 68.35 63.31 69.79 63.31 71.57C63.31 73.35 64.76 74.79 66.54 74.79ZM69.72 72.68C69.72 79.73 75.45 85.47 82.5 85.47C89.55 85.47 95.28 79.73 95.28 72.68L95.28 66.06C95.28 65.14 94.9 64.26 94.25 63.66L94.25 63.66C91.74 61.35 89 57.49 87.7 55.59C81.59 62.05 73.74 64.16 70.6 64.77C70.09 64.87 69.72 65.32 69.72 65.85L69.72 72.68Z" />
							</g>
						</g>
					</g>
				</g>
			</g>
		</g>
	</g>
</svg>