<svg xmlns="http://www.w3.org/2000/svg" viewBox="0 0 51 42" width="51" height="42">
	<defs>
		<clipPath clipPathUnits="userSpaceOnUse" id="cp1">
			<path d="M-34 -40L1886 -40L1886 5979L-34 5979Z" />
		</clipPath>
	</defs>
	<style>
		tspan { white-space:pre }
		.shp0 { fill: #ff9c00;stroke: #ff9c00;stroke-width: 0.2 } 
	</style>
	<g id="CovidZone" clip-path="url(#cp1)">
		<g id="Hader">
			<g id="Logo">
				<g id="medical-mask (1)">
					<path id="Path 1" fill-rule="evenodd" class="shp0" d="M49.86 13.55L49.86 19.53C49.86 24.73 46.27 29.29 41.26 30.52C38.22 36.16 32.27 40 25.43 40C18.59 40 12.64 36.16 9.6 30.52C4.59 29.29 1 24.73 1 19.53L1 13.55C1 10.59 3.41 8.18 6.37 8.18C6.37 8.18 9.15 8.16 9.39 8.16C13.15 8.16 16.84 6.73 19.78 4.13C21.34 2.76 23.35 2 25.43 2C27.51 2 29.52 2.76 31.08 4.13C34.02 6.73 37.71 8.16 41.47 8.16C41.72 8.16 44.49 8.18 44.49 8.18C47.45 8.18 49.86 10.59 49.86 13.55ZM10.33 11L10.33 13.26L10.68 13.26C15.34 13.26 19.82 11.63 23.28 8.68C23.54 8.46 23.79 8.23 24.09 8.07C24.66 7.75 25.33 7.65 25.97 7.78C26.29 7.84 26.61 7.96 26.89 8.13C27.14 8.29 27.36 8.49 27.58 8.68C31.04 11.63 35.52 13.26 40.18 13.26L40.53 13.26L40.53 11C36.4 10.78 32.4 9.12 29.18 6.28C28.15 5.37 26.81 4.86 25.43 4.86C24.05 4.86 22.71 5.37 21.68 6.28C18.46 9.12 14.46 10.78 10.33 11ZM3.86 19.53C3.86 22.62 5.56 25.4 8.13 26.88C7.7 25.34 7.47 23.71 7.47 22.04L7.47 11.04L6.37 11.04C4.99 11.04 3.86 12.17 3.86 13.55L3.86 19.53ZM40.53 22.04L40.53 16.12L40.18 16.12C34.84 16.12 29.71 14.25 25.73 10.86C25.66 10.81 25.6 10.75 25.54 10.7C25.52 10.67 25.47 10.61 25.43 10.6C25.39 10.6 25.34 10.67 25.32 10.7C25.26 10.76 25.2 10.81 25.14 10.86C21.16 14.25 16.02 16.12 10.68 16.12L10.33 16.12L10.33 22.04C10.33 30.36 17.11 37.14 25.43 37.14C33.76 37.14 40.53 30.36 40.53 22.04ZM47 19.53L47 13.55C47 12.17 45.87 11.04 44.49 11.04L43.39 11.04L43.39 22.04C43.39 23.71 43.16 25.34 42.73 26.88C45.3 25.4 47 22.62 47 19.53L47 19.53Z" />
				</g>
			</g>
		</g>
	</g>
</svg>