<svg xmlns="http://www.w3.org/2000/svg" viewBox="0 0 20 19" width="20" height="19">
	<defs>
		<clipPath clipPathUnits="userSpaceOnUse" id="cp1">
			<path d="M-494 -5189L1426 -5189L1426 830L-494 830Z" />
		</clipPath>
	</defs>
	<style>
		tspan { white-space:pre }
		.shp0 { fill: #ff9c00 } 
	</style>
	<g id="CovidZone" clip-path="url(#cp1)">
		<g id="Our products">
			<g id="Details">
				<g id="1">
					<g id="Text">
						<g id="Reviwe">
							<g id="black-star-silhouette">
								<g id="Group 81">
									<path id="Path 53" class="shp0" d="M9.91 1.32C10.01 1.13 10.21 1 10.43 1C10.65 1 10.86 1.13 10.95 1.32L13.21 5.9C13.43 6.34 13.84 6.63 14.31 6.7L19.37 7.44C19.59 7.47 19.77 7.62 19.84 7.83C19.91 8.04 19.85 8.27 19.69 8.43L16.03 11.99C15.69 12.33 15.53 12.81 15.61 13.29L16.48 18.32C16.51 18.54 16.42 18.76 16.25 18.89C16.07 19.02 15.83 19.04 15.64 18.93L11.11 16.56C10.69 16.33 10.18 16.33 9.75 16.56L5.23 18.93C5.04 19.04 4.8 19.02 4.62 18.89C4.44 18.76 4.35 18.54 4.39 18.32L5.25 13.29C5.34 12.81 5.18 12.33 4.83 11.99L1.18 8.43C1.02 8.27 0.96 8.04 1.03 7.83C1.1 7.62 1.28 7.47 1.5 7.44L6.55 6.7C7.03 6.63 7.44 6.34 7.65 5.9L9.91 1.32Z" />
								</g>
							</g>
						</g>
					</g>
				</g>
			</g>
		</g>
	</g>
</svg>