<svg xmlns="http://www.w3.org/2000/svg" viewBox="0 0 26 22" width="26" height="22">
	<defs>
		<clipPath clipPathUnits="userSpaceOnUse" id="cp1">
			<path d="M-1625 -49L295 -49L295 5970L-1625 5970Z" />
		</clipPath>
	</defs>
	<style>
		tspan { white-space:pre }
		.shp0 { fill: #ffffff;stroke: #ffffff;stroke-width: 0.5 } 
	</style>
	<g id="CovidZone" clip-path="url(#cp1)">
		<g id="Hader">
			<g id="Icon">
				<g id="shopping-cart">
					<path id="Path 5" fill-rule="evenodd" class="shp0" d="M24.96 8.82L22.59 19.16C22.43 19.88 21.79 20.38 21.04 20.38L5.96 20.38C5.21 20.38 4.57 19.88 4.4 19.16L2.04 8.82C1.93 8.36 2.04 7.88 2.34 7.5C2.65 7.12 3.1 6.9 3.59 6.9L8.02 6.9L10.42 1.4C10.57 1.06 10.97 0.91 11.31 1.06C11.65 1.21 11.81 1.6 11.66 1.94L9.49 6.9L17.51 6.9L15.34 1.94C15.19 1.6 15.35 1.21 15.69 1.06C16.03 0.91 16.43 1.06 16.58 1.4L18.98 6.9L23.41 6.9C23.9 6.9 24.35 7.12 24.66 7.5C24.96 7.88 25.07 8.36 24.96 8.82ZM21.28 18.85L23.65 8.52C23.67 8.44 23.63 8.38 23.6 8.34C23.58 8.31 23.52 8.25 23.41 8.25L19.57 8.25L19.74 8.66C19.89 9 19.74 9.39 19.4 9.54C19.31 9.58 19.22 9.6 19.13 9.6C18.87 9.6 18.62 9.45 18.51 9.2L18.1 8.25L8.9 8.25L8.49 9.2C8.38 9.45 8.13 9.6 7.87 9.6C7.78 9.6 7.69 9.58 7.6 9.54C7.26 9.39 7.11 9 7.26 8.66L7.43 8.25L3.59 8.25C3.48 8.25 3.42 8.31 3.4 8.34C3.37 8.38 3.33 8.44 3.35 8.52L5.72 18.85C5.74 18.96 5.84 19.03 5.96 19.03L21.04 19.03C21.16 19.03 21.26 18.96 21.28 18.85Z" />
					<path id="Path 6" class="shp0" d="M9.48 10.56C9.07 10.56 8.75 10.89 8.75 11.29L8.75 16.66C8.75 17.07 9.07 17.39 9.48 17.39C9.88 17.39 10.21 17.07 10.21 16.66L10.21 11.29C10.21 10.89 9.88 10.56 9.48 10.56Z" />
					<path id="Path 7" class="shp0" d="M13.5 10.56C13.1 10.56 12.77 10.89 12.77 11.29L12.77 16.66C12.77 17.07 13.1 17.39 13.5 17.39C13.9 17.39 14.23 17.07 14.23 16.66L14.23 11.29C14.23 10.89 13.9 10.56 13.5 10.56Z" />
					<path id="Path 8" class="shp0" d="M17.52 10.56C17.12 10.56 16.79 10.89 16.79 11.29L16.79 16.66C16.79 17.07 17.12 17.39 17.52 17.39C17.93 17.39 18.25 17.07 18.25 16.66L18.25 11.29C18.25 10.89 17.93 10.56 17.52 10.56Z" />
				</g>
			</g>
		</g>
	</g>
</svg>